<svg xmlns="http://www.w3.org/2000/svg" width="256" height="256"><path fill-opacity=".016" d="M0 128.004v128.004l128.25-.254 128.25-.254.254-127.75L257.008 0H0v128.004m.485.496c0 70.4.119 99.053.265 63.672.146-35.38.146-92.98 0-128C.604 29.153.485 58.1.485 128.5" fill="#1976D2" fill-rule="evenodd"/><path fill-opacity=".251" d="M122.001 11.172l-5.499 3.153-5.568-2.028-5.568-2.028-4.273 3.986-4.274 3.986-6.864-.677-6.865-.676-3.295 5.038-3.295 5.038-6.767.018-6.767.018-2.744 5.723-2.744 5.723-5.967 1.027c-6.45 1.11-6.247.87-8.481 10.027-.902 3.695-1.429 4.175-6.906 6.294l-5.93 2.294-.692 6.706-.693 6.706-5.448 3.824c-3.815 2.677-5.302 4.326-4.958 5.5 2.222 7.591 1.966 8.931-2.727 14.296l-4.534 5.184 2.026 5.415 2.026 5.415-3.606 5.432-3.607 5.431 3.153 5.586 3.153 5.587-2.795 5.846-2.794 5.846 4.264 5.093c4.198 5.014 4.247 5.158 3.169 9.44-.602 2.391-1.366 5.054-1.697 5.917-.421 1.096.933 2.674 4.482 5.223L24 174.188l.003 7.156.003 7.156 5.747 3 5.747 3 .5 5.999.5 5.999 6.579 1.887 6.579 1.886 1.921 6.115L53.5 222.5l6.203.297 6.203.296 3.121 5.454 3.12 5.453h14.362l3.496 4.462c1.922 2.454 4.053 4.479 4.734 4.5.682.021 3.596-.857 6.476-1.952l5.237-1.99 4.661 4.592 4.662 4.591 5.925-3.282 5.925-3.282 5.657 3.236 5.656 3.236 5.311-4.009 5.311-4.01 6.047 1.62 6.046 1.62 4.41-4.784 4.409-4.784 6.235.501 6.235.5 2.957-5.24c3.067-5.435 5.185-6.48 13.201-6.514 2.246-.01 2.975-.894 5.359-6.502 2.567-6.04 3.046-6.565 6.9-7.559 2.277-.588 4.909-1.291 5.847-1.563 1.258-.364 1.887-2.087 2.392-6.553.664-5.868.83-6.148 5.294-8.911 7.059-4.37 7.108-4.448 7.108-11.358 0-6.325.023-6.376 4.598-10.238l4.599-3.882-1.154-4.285c-.635-2.357-1.358-4.819-1.607-5.473-.25-.653 1.539-3.614 3.974-6.581l4.427-5.393-2.654-5.413c-2.938-5.989-3.159-4.736 2.552-14.424 1.492-2.53 1.402-2.815-2.491-7.922l-4.04-5.297 2.1-5.835 2.1-5.835-4.328-4.409-4.327-4.409.697-6.508.697-6.508-5.523-3.533-5.522-3.533-.299-6.293-.299-6.294-5.967-3.053c-5.82-2.977-6.003-3.196-7.378-8.83-1.526-6.253-1.427-6.17-8.377-7.099-4.548-.609-4.838-.85-7.889-6.575L192.721 27l-5.61-.118c-3.086-.066-5.95-.065-6.365.001-.415.066-2.624-2.296-4.909-5.249l-4.154-5.369-5.091 1.355c-2.801.746-5.381 1.362-5.734 1.368-.353.007-2.896-2.015-5.651-4.492l-5.009-4.504-5.462 2.091-5.462 2.09-5.387-2.831A836.342 836.342 0 00128 8.266c-.275-.135-2.975 1.173-5.999 2.906m-9.501 33.89c-6.704 1.108-20.445 5.618-24.349 7.992C85.761 54.508 85 55.683 85 57.922c0 2.813-.164 2.926-3.485 2.387-2.891-.469-4.212-.006-7.75 2.717-5.328 4.1-12.134 12.165-16.978 20.119-3.527 5.79-3.64 6.238-2.25 8.926C56.498 95.864 56.447 96 53.072 96c-2.637 0-3.135.553-5.011 5.565-3.169 8.472-4.174 14.047-4.376 24.275-.183 9.246-.155 9.365 2.779 11.708l2.964 2.368-2.368 2.52-2.368 2.521 2.741 8.425c1.507 4.634 5.114 12.407 8.014 17.272 4.996 8.382 5.469 8.863 9.012 9.162 3.649.309 3.724.396 3.117 3.629-.573 3.055-.184 3.712 4.991 8.442 5.916 5.408 16.372 11.942 22.708 14.192 2.975 1.057 4.436 1.091 6.896.162 3.398-1.282 4.829-.902 4.829 1.283 0 2.611 4.237 3.698 16.478 4.226 16.167.698 21.104-.091 24.709-3.95 2.659-2.846 2.959-2.934 5.144-1.502 2.138 1.4 2.833 1.304 8.825-1.224 7.6-3.207 14.454-7.729 21.094-13.919 3.847-3.587 4.75-5.068 4.75-7.792 0-3.181.191-3.363 3.522-3.363 3.213 0 3.867-.534 7.467-6.104 4.238-6.557 7.213-13.709 9.817-23.598 1.61-6.113 1.602-6.235-.568-8.545l-2.202-2.343 2.982-1.762c2.953-1.744 2.982-1.847 2.982-10.639 0-8.822-1.63-18.89-4.286-26.468-1.079-3.08-2.069-4.135-4.461-4.755-2.945-.763-3.027-.925-1.933-3.824.98-2.596.812-3.65-1.189-7.421-3.452-6.507-12.186-16.677-17.965-20.919-4.387-3.22-5.563-3.638-8.623-3.064-3.444.646-3.543.577-3.543-2.461 0-2.452-.702-3.557-3.25-5.12-5.681-3.483-13.741-6.013-24.428-7.666l-10.379-1.606-2.492 2.341-2.492 2.341-1.536-2.194c-1.669-2.382-4.078-2.593-12.923-1.131M88.507 67.25c-.236.688-2.927 19.025-5.979 40.75-3.053 21.725-5.759 40.738-6.014 42.25L76.05 153h7.916c4.354 0 8.141-.364 8.416-.809.275-.445.815-4.28 1.199-8.522.659-7.27.59-7.679-1.191-7.11-1.845.59-1.844.567.009-.947 1.311-1.07 2.121-3.499 2.614-7.831.698-6.142.716-6.174.85-1.448.075 2.659.501 4.684.946 4.5.445-.183 3.789-2.096 7.43-4.25l6.622-3.917.579-7.083c1.194-14.62 1.368-14.683.91-.333-.259 8.112-.132 14.75.282 14.75.413 0 3.815-1.82 7.56-4.045l6.808-4.044V76h-5.893c-6.444 0-7.109.592-7.105 6.332l.003 3.168-7.09-.335-7.089-.336.706-9.414.706-9.415h-6.15c-4.025 0-6.299.432-6.581 1.25M128 93.5c0 14.575.344 26.5.764 26.5.42 0 3.632-1.927 7.137-4.282l6.374-4.281-.024-9.969-.024-9.968.854 12.902c.469 7.096.982 13.286 1.138 13.756.361 1.081 13.781-7.858 13.781-9.179 0-.538.362-.867.805-.729.443.137 3.607-1.473 7.031-3.58 5.893-3.626 6.195-3.999 5.671-7-.836-4.785-4.484-29.062-4.496-29.92-.006-.412-2.776-.75-6.155-.75h-6.145l.535 7.75c.294 4.263.321 7.188.061 6.5-.31-.819-2.662-1.25-6.817-1.25-5.2 0-6.426.315-6.801 1.75-.251.963-.509-1.963-.573-6.5L141 67h-13v26.5m-28.327 12.25c-2.29 25.071-2.616 22.981 3.077 19.712 2.612-1.5 5.081-3.022 5.486-3.381.405-.36 1.191-6.487 1.747-13.617.555-7.13 1.181-14.876 1.391-17.214l.38-4.25h-10.369l-1.712 18.75m13.655-12.25c.005 3.85.185 5.302.402 3.228.216-2.075.213-5.225-.008-7-.221-1.776-.398-.078-.394 3.772m42.924-3c.011 2.2.216 2.982.455 1.738.239-1.244.23-3.044-.02-4s-.446.062-.435 2.262m-58.057 6c.02 1.65.244 2.204.498 1.231.254-.973.237-2.323-.037-3-.274-.677-.481.119-.461 1.769m59.091 5c.008 2.75.202 3.756.432 2.236.229-1.52.223-3.77-.014-5-.237-1.23-.425.014-.418 2.764m-60.034 5c.011 2.2.216 2.982.455 1.738.239-1.244.23-3.044-.02-4s-.446.062-.435 2.262m68.02 2.258c-4.827 2.9-6.259 4.305-6.366 6.242-.095 1.714-.282 1.95-.595.75-.625-2.39-.971-2.277-7.811 2.57-5.681 4.025-6.032 4.515-6.593 9.215-.472 3.951-.625 3.069-.75-4.315l-.157-9.281-7.536 5.085-7.535 5.085.285 9.695.286 9.696h15l.593-5c.533-4.498.609-4.222.75 2.75L145 149h16l.173-4.75c.155-4.285.229-4.113.75 1.75l.577 6.5 8.384.293 8.383.292-.536-2.792c-.294-1.536-1.797-12.355-3.338-24.043-1.541-11.687-3.048-21.247-3.348-21.242-.3.004-3.348 1.691-6.773 3.75m-69 7.242c0 2.475.195 3.487.434 2.25.238-1.237.238-3.263 0-4.5-.239-1.237-.434-.225-.434 2.25m63.028 7c0 3.025.187 4.263.416 2.75.229-1.513.229-3.987 0-5.5s-.416-.275-.416 2.75m-40.55 6.623c-6.654 4.407-6.75 4.534-6.75 8.924V143h15v-9c0-4.95-.338-8.965-.75-8.923-.412.042-3.787 2.088-7.5 4.546m-16.25 1.422l-7 3.799-.507 6.203c-.33 4.047-.122 6.35.599 6.627.609.233 4.212.29 8.007.125l6.901-.299.285-10.25c.157-5.637-.068-10.195-.5-10.127-.432.068-3.935 1.832-7.785 3.922M160.3 134c0 3.025.187 4.262.416 2.75.229-1.512.229-3.988 0-5.5s-.416-.275-.416 2.75m-57.3-1.065c-5.407 2.793-5.509 2.927-6.028 7.953L96.444 146h12.404l.326-8.002c.179-4.402.101-7.98-.174-7.953-.275.027-2.975 1.328-6 2.89M112 148c0 .625 6 1 16 1s16-.375 16-1-6-1-16-1-16 .375-16 1m-.75 4.748c9.213.165 24.287.165 33.5 0 9.213-.165 1.675-.3-16.75-.3s-25.963.135-16.75.3M76 157c0 .654 17.833 1 51.5 1s51.5-.346 51.5-1-17.833-1-51.5-1-51.5.346-51.5 1m0 4.5c0 1.314 6.444 1.5 52 1.5s52-.186 52-1.5-6.444-1.5-52-1.5-52 .186-52 1.5m8.775 6.005C81.313 169.452 80 171.925 80 176.5c0 4.74 1.353 7.114 5.184 9.095 3.923 2.029 9.245 1.29 12.459-1.73 3.409-3.202 3.383-11.552-.045-14.773-3.052-2.867-9.196-3.628-12.823-1.587m25.529.451c-5.113 3.118-5.756 12.515-1.142 16.69 3.172 2.871 11.435 2.57 13.926-.507 2.59-3.198 2.404-4.799-.65-5.565-1.905-.478-2.996-.106-4.258 1.453-2.6 3.21-5.18 1.667-5.18-3.099 0-4.502 2.856-7.011 5.017-4.407 2.295 2.765 7.582 1.205 6.396-1.888-.807-2.103-5.517-4.634-8.613-4.629-1.265.002-3.738.88-5.496 1.952m49.806-.615c-6.918 3.992-6.765 14.948.256 18.297 4.346 2.072 9.5 1.197 12.641-2.145 3.357-3.574 3.263-10.677-.188-14.128-3.031-3.032-9.247-4.021-12.709-2.024m-28.896 9.409l.286 9.75 7.459-.149c6.388-.127 7.715-.466 9.25-2.36 2.198-2.715 2.261-4.378.243-6.396-1.175-1.175-1.295-2.019-.5-3.506 2.689-5.024-.095-7.089-9.56-7.089h-7.464l.286 9.75M138 172.5c0 .833.889 1.5 2 1.5s2-.667 2-1.5-.889-1.5-2-1.5-2 .667-2 1.5m-50.333.167c-1.519 1.519-.642 7.276 1.264 8.296 3.445 1.844 6.233-2.767 4.462-7.381-.604-1.573-4.453-2.188-5.726-.915m75 0c-1.519 1.519-.642 7.276 1.264 8.296 3.445 1.844 6.233-2.767 4.462-7.381-.604-1.573-4.453-2.188-5.726-.915M138 180c0 1.313.667 2 1.941 2 2.496 0 3.725-1.964 1.937-3.096-2.302-1.459-3.878-1.013-3.878 1.096m-29.8 8.2c-1.711 1.711-1.483 3.8.415 3.8 1.463 0 1.454.246-.093 2.607-1.982 3.025-.955 4.738 2.534 4.228 2.582-.378 3.946-2.835 1.574-2.835-1.354 0-1.339-.345.125-2.896 1.395-2.431 1.449-3.154.331-4.5-1.584-1.909-3.244-2.046-4.886-.404m12.05-.538c-.759.306-1.25 2.41-1.25 5.354 0 4.1.336 4.956 2.174 5.539 4.158 1.32 6.715-6.523 3.255-9.984-1.64-1.639-2.113-1.742-4.179-.909m10.75 1.353c-1.094.718-1.183 1.191-.331 1.744.642.417 1.317 2.33 1.5 4.25.489 5.155 2.284 3.794 2.633-1.996.313-5.189-.571-6.119-3.802-3.998m10 0c-1.094.718-1.183 1.191-.331 1.744.642.417 1.317 2.33 1.5 4.25.489 5.155 2.284 3.794 2.633-1.996.313-5.189-.571-6.119-3.802-3.998" fill="#1976D2" fill-rule="evenodd"/><path fill-opacity=".239" d="M122 11.457l-5.5 3.174-5.713-2.055-5.712-2.055-3.972 3.879-3.972 3.878-7.048-.504-7.047-.504-3.122 4.865L76.792 27H62.943l-2.577 5.941-2.576 5.941-5.242.655c-2.882.36-5.736.961-6.342 1.336-.606.374-1.692 3.343-2.414 6.596-1.284 5.79-1.419 5.96-6.306 7.973C30.401 58.362 30 58.736 30 62.434c0 7.112-1.04 9.28-6.107 12.734-5.139 3.502-5.523 4.601-3.96 11.332.601 2.588.078 3.739-3.806 8.38l-4.504 5.38 1.689 4.754c2.21 6.225 2.191 6.395-1.312 11.486-1.65 2.398-3 4.888-3 5.533 0 .645 1.222 3.346 2.716 6.003l2.715 4.831-2.868 6-2.867 6.001 4.559 5.07 4.559 5.071-1.798 5.937-1.797 5.936 5.077 3.809 5.077 3.809-.253 6.674-.252 6.674 6.054 3.326c4.882 2.682 6.059 3.81 6.077 5.826.042 4.577 1.25 10 2.228 10 .531 0 3.381.702 6.334 1.561l5.37 1.561 1.66 5.917c1.795 6.397 1.948 6.494 11.374 7.201 3.033.228 3.837.915 6.454 5.51l2.989 5.25 7.046-.008 7.046-.008 4 4.557 4 4.557 5.859-2.033 5.86-2.033 5.217 4.458c2.872 2.453 5.632 4.093 6.141 3.648.507-.445 2.954-1.965 5.437-3.377l4.514-2.568 5.655 3.329 5.655 3.33 5.261-3.926c2.894-2.159 5.549-3.926 5.9-3.926s3.031.711 5.955 1.579l5.317 1.579 4.649-4.579c4.51-4.442 4.833-4.579 10.822-4.579h6.174l2.72-4.75c1.496-2.613 2.858-4.93 3.026-5.151.168-.22 3.123-.67 6.567-1 6.151-.588 6.292-.669 8.026-4.599 3.76-8.523 4.072-8.859 9.76-10.504l5.485-1.586 1-6.264c.985-6.17 1.075-6.304 6-8.955l5-2.691.5-7.128c.492-7.01.575-7.19 5-10.858a968.904 968.904 0 004.729-3.935c.126-.112-.491-2.731-1.369-5.82l-1.598-5.617 4.308-5.11 4.309-5.11-2.672-5.447-2.671-5.446 3.415-5.765c2.804-4.733 3.204-6.068 2.232-7.462a949.701 949.701 0 00-3.972-5.609l-2.788-3.912 2.149-5.744 2.149-5.744-4.525-4.646-4.525-4.647.949-5.882c.522-3.235.722-6.109.445-6.386-.277-.277-2.655-1.908-5.284-3.625-4.037-2.635-4.821-3.664-5.041-6.614-.673-9.043-.916-9.47-7.071-12.412-5.635-2.694-5.849-2.942-7.238-8.412-1.527-6.014-2.089-6.444-10.003-7.649-3.205-.488-3.865-1.158-6.434-6.532L192.632 27h-13.293l-3.205-4.463c-1.763-2.455-3.646-4.735-4.185-5.068-.538-.333-3.417-.06-6.397.607l-5.418 1.212-4.708-4.144C152.837 12.865 150.28 11 149.743 11c-.536 0-3.171.78-5.854 1.733l-4.88 1.733-5.755-3.091-5.754-3.092-5.5 3.174m.007 1.607l-5.494 3.027-5.38-2.059-5.38-2.059-4.363 4.022-4.363 4.021-6.764-.577-6.763-.577-3 4.567-3 4.567-6.694.002-6.694.002-2.668 5.945c-2.797 6.233-2.529 6.057-11.582 7.611-3.535.607-3.67.793-4.821 6.64l-1.183 6.015-5.846 2.522c-6.297 2.718-6.975 3.784-6.998 11.007-.013 4.024-.293 4.425-5.514 7.891-3.025 2.009-5.5 3.791-5.5 3.961 0 .17.497 2.625 1.103 5.454 1.067 4.973 1.007 5.251-1.781 8.3-6.743 7.374-6.505 6.668-4.251 12.598l2.027 5.335-3.593 5.412-3.593 5.411 3.086 5.394 3.086 5.394-3.009 5.961c-2.637 5.225-2.823 6.113-1.504 7.208.828.687 2.871 2.974 4.541 5.083l3.037 3.834-1.641 5.645c-.903 3.105-1.274 5.956-.825 6.334.449.379 2.758 2.18 5.131 4.002l4.314 3.312-.234 6.452-.234 6.452 4.92 2.896c2.706 1.592 5.26 3.016 5.675 3.165.415.148 1.09 2.944 1.5 6.213l.745 5.944 6.256 1.842 6.257 1.842 1.657 5.963L54.328 221l4.086.1c7.104.173 8.859 1.15 12.025 6.697l2.977 5.216 6.433-.659 6.433-.659 4.273 4.902 4.272 4.903 5.874-2.105 5.873-2.104 4.8 4.346 4.8 4.345 5.725-3.172 5.726-3.171 5.657 3.236 5.656 3.236 5.373-4.056 5.372-4.056 5.54 1.906 5.539 1.905 4.854-4.928 4.854-4.928 5.689.643 5.688.644 3.172-5.62c2.844-5.04 3.511-5.621 6.451-5.621 7.901 0 9.134-.775 12.014-7.552 2.694-6.338 2.701-6.345 8.039-7.453 5.759-1.195 5.409-.688 7.053-10.241.558-3.238 1.34-4.118 5.784-6.5l5.14-2.754.291-7.095.29-7.094 4.46-3.341c4.991-3.74 4.977-3.693 3.037-10.085l-1.401-4.615 4.346-5.298 4.346-5.298-2.435-4.804c-1.339-2.642-2.434-5.262-2.434-5.822 0-.56 1.424-3.332 3.164-6.161 2.15-3.493 2.871-5.566 2.25-6.463-.503-.727-2.22-3.154-3.816-5.395l-2.901-4.074 1.822-6.016 1.821-6.017-4.318-4.399-4.318-4.4.972-6.037.973-6.036-5.18-3.439c-5.319-3.532-6.425-5.873-6.458-13.677-.009-2.144-.987-3.033-5.94-5.4-5.787-2.766-5.961-2.968-7.291-8.434l-1.362-5.6-5.935-1.179c-3.265-.649-6.07-1.549-6.234-2-.164-.452-1.525-3.071-3.024-5.821l-2.725-5-6.611-.293-6.611-.292-3.312-4.708c-1.822-2.589-3.368-4.803-3.436-4.92-.068-.117-2.577.44-5.577 1.238-2.999.798-5.55 1.457-5.67 1.463-.119.007-2.472-1.992-5.23-4.441l-5.014-4.453-5.658 1.947-5.659 1.947-5.233-2.994c-2.878-1.647-5.403-2.986-5.611-2.976-.208.01-2.85 1.381-5.871 3.046m.878 11.686l-.271 1.75c-.085.55-.53 2.065-.989 3.366l-.833 2.365-1.839-2.803c-1.012-1.542-1.613-3.169-1.337-3.616.276-.446-.875-.812-2.557-.812s-3.059.256-3.059.57c0 .313 1.35 2.532 3 4.93 3.267 4.748 3.638 6.462 1.8 8.3-.933.933-.656 1.184 1.25 1.13 2.626-.076 7.287-1.742 5.2-1.86-1.948-.109-1.483-6.175.754-9.844 1.098-1.801 1.996-3.488 1.996-3.75 0-.795-2.991-.531-3.115.274m11.313 6.479c-.167 3.42-.767 6.505-1.334 6.855-2.431 1.502 7.002 2.672 10.554 1.309 1.778-.682 2.152-4.923.522-5.93-.681-.421-.484-1.076.555-1.835 3.454-2.526-1.084-6.636-7.31-6.622-2.592.006-2.695.221-2.987 6.223M104 26.98a58.695 58.695 0 01-5.157 1.428c-2.07.455-2.541 1.032-2.128 2.611.486 1.859.632 1.888 1.756.352.674-.922 1.718-1.372 2.32-1 .997.616 2.877 9.106 2.407 10.879-.238.9 1.481.943 4.575.114 1.871-.501 2.026-.809.878-1.737-1.539-1.243-4.09-10.521-3.151-11.461.325-.325 1.509-.017 2.631.684 1.785 1.115 1.996 1.049 1.693-.527-.403-2.094-2.306-2.532-5.824-1.343M138.71 29c-.325 1.242-.03 2 .777 2 1.436 0 2.721-2.459 1.777-3.402-1.111-1.111-2.028-.607-2.554 1.402m10.64-1.242c.331.535.077 3.471-.564 6.526-1.404 6.692-.287 8.716 4.811 8.716 3.54 0 5.324-2.169 6.782-8.25.362-1.513 1.127-2.75 1.699-2.75.572 0 .762-.45.422-1-1.276-2.065-3.257-.886-3.781 2.25-1.221 7.303-4.211 10.999-6.242 7.713-.997-1.614.533-8.83 2.233-10.53 1.845-1.845 1.705-2.003-2.585-2.923-2.11-.453-3.15-.36-2.775.248m-59.007 3.239l-2.158.87 2.056 4.154c1.13 2.285 2.101 5.464 2.157 7.065.056 1.6.147 2.91.203 2.912 1.494.034 6.295-2.444 5.585-2.883-1.365-.844-5.244-11.213-4.59-12.27.643-1.04-.422-.99-3.253.152m75.089 1.892c.877 1.42-3.501 10.977-5.181 11.309-.839.166 2.284 2.232 6.941 4.592 4.657 2.359 10.839 6.071 13.738 8.25 6.099 4.582 8.816 4.924 12.021 1.512 3.461-3.684 2.981-7.31-1.514-11.429-2.809-2.575-3.933-3.117-4.27-2.059-.889 2.791-6.357 8.936-7.951 8.936-1.257 0-1.349-.267-.416-1.2 1.837-1.837 1.429-3.008-.8-2.3-1.1.349-2.908.347-4.017-.005-1.963-.624-1.944-.77.75-5.567 1.522-2.709 3.442-4.936 4.267-4.949 1.004-.016.674-.67-1-1.979-1.375-1.076-2.725-1.947-3-1.937-.275.011-1.563 2.284-2.862 5.052-1.3 2.769-3.017 5.285-3.818 5.592-3.001 1.152-3.171-1.309-.474-6.889l2.747-5.683-2.344-1.067c-2.854-1.301-3.538-1.344-2.817-.179m-81.4.736c-.018.619-1.363 1.391-2.989 1.716-2.898.58-6.043 4.73-6.043 7.974 0 3 4.052 6.685 7.35 6.685 3.801 0 7.659-2.431 7.628-4.807-.018-1.345-.401-1.201-1.862.7-3.294 4.284-9.116.512-9.116-5.905 0-2.667 3.419-4.37 6-2.988 1.1.589 2 .691 2 .226 0-1.312-2.932-4.87-2.968-3.601M138 35.417c0 1.68.549 2.583 1.57 2.583 1.042 0 1.462-.729 1.25-2.172-.472-3.201-2.82-3.544-2.82-.411m-21.5 7.621c-8.415.736-16.655 3.034-25.75 7.181-6.098 2.78-6.75 3.36-6.75 6.008 0 2.686-.233 2.881-2.781 2.321-5.488-1.205-14.414 6.747-24.567 21.888-4.898 7.304-5.28 8.523-3.63 11.605.862 1.612.614 2.012-1.592 2.566-5.078 1.274-9.392 16.012-9.415 32.164-.015 9.993.053 10.303 2.485 11.411 2.993 1.364 3.085 1.979.629 4.201-1.617 1.464-1.742 2.331-.922 6.405 1.131 5.615 9.349 22.978 13.709 28.962 2.272 3.118 3.79 4.25 5.699 4.25 2.22 0 2.517.34 2.022 2.312-.465 1.852.458 3.307 4.641 7.314 7.154 6.854 11.404 9.821 19.902 13.893 7.357 3.526 11.197 4.299 12.32 2.481 1.055-1.706 2.509-1.107 3.474 1.431 1.209 3.18 6.347 4.069 23.526 4.069 13.937 0 18.942-1.168 20.057-4.68.43-1.355 1.139-1.752 2.283-1.279 3.859 1.595 5.17 1.513 10.282-.642C174.31 201.761 190 189.055 190 184.323c0-1.853.679-2.509 3.095-2.992 5.615-1.123 13.239-14.411 17.519-30.535 1.72-6.479 1.718-6.772-.068-8.745-1.807-1.997-1.79-2.096.803-4.499 2.434-2.256 2.65-3.094 2.638-10.254-.015-8.715-2.901-24.297-5.393-29.116-.897-1.734-2.695-3.42-3.995-3.747-2.125-.533-2.259-.875-1.319-3.365.91-2.411.578-3.539-2.553-8.671-7.762-12.725-21.292-25.048-26.16-23.826-2.257.566-2.567.333-2.567-1.922 0-1.988-1.024-3.167-4.542-5.228-10.983-6.437-35.186-10.866-38.375-7.023-1.287 1.551-1.529 1.54-3.483-.154-1.771-1.536-3.195-1.725-9.1-1.208m-3.5 1.669c-6.89 1.197-15.179 3.736-21.25 6.507C85.715 53.97 85 54.598 85 57.148 85 59.79 84.717 60 81.15 60c-2.651 0-5.082.893-7.808 2.868-4.364 3.16-12.329 12.77-17.265 20.829-3.083 5.034-3.133 5.293-1.595 8.268 1.68 3.249 1.475 3.539-2.982 4.226-3.411.527-7.57 14.887-8.237 28.444l-.55 11.165 3.143 1.626c3.709 1.918 3.907 2.926.976 4.979-2.053 1.438-2.103 1.807-.948 6.966 1.381 6.173 7.594 19.556 12.157 26.188 2.622 3.812 3.546 4.441 6.519 4.441 3.45 0 3.461.015 2.856 3.797-.582 3.64-.376 3.995 4.971 8.563 6.869 5.868 15.268 10.993 22.369 13.65 4.857 1.817 5.584 1.865 7.532.501 2.952-2.068 3.366-1.941 4.524 1.38.924 2.65 1.539 2.955 7.348 3.646 14.423 1.716 33.84.325 33.84-2.423 0-.403.6-1.552 1.333-2.555 1.263-1.727 1.471-1.733 3.924-.126 2.514 1.647 2.824 1.59 10.409-1.914 8.204-3.791 21.104-12.993 23.64-16.864.847-1.292 1.268-3.434.975-4.964-.481-2.519-.284-2.691 3.093-2.691 3.145 0 4.054-.608 7.103-4.75 3.617-4.914 8.589-16.52 10.951-25.562 1.28-4.904 1.237-5.316-.787-7.527l-2.141-2.338 2.637-2.162c1.799-1.474 2.791-3.432 3.121-6.161.733-6.063-.946-20.278-3.292-27.876-1.782-5.767-2.528-6.924-5.029-7.796-3.165-1.103-3.492-1.922-1.934-4.834 2.03-3.793-11.051-21.597-20.865-28.398-2.828-1.96-4.92-2.654-7.301-2.422-3.107.304-3.358.104-3.648-2.891-.275-2.849-1.024-3.569-6.544-6.286-6.315-3.109-22.162-6.96-28.74-6.984-2.347-.008-4.228.687-5.419 2.003l-1.824 2.015-2.145-2.015c-2.107-1.979-6.2-2.407-12.517-1.309m-53.25 4.581c-3.26 2.792-5.278 5.774-2.922 4.318 1.159-.716 8.419 8.185 7.668 9.4-.338.547-1.068.994-1.622.994-1.672 0-8.037-5.268-8.775-7.262-.586-1.584-1.483-.952-5.963 4.199C44.422 65.207 43.361 67 44.549 67c1.844 0 8.637 5.511 9.47 7.682.339.884 2.164-.602 5.253-4.276 2.603-3.096 6.982-7.459 9.731-9.694C71.751 58.476 74 56.362 74 56.014c0-.347-.661-1.505-1.468-2.573-1.415-1.871-1.47-1.849-1.5.609-.031 2.47-1.633 4.95-3.197 4.95-.42 0-1.269-.943-1.886-2.095-1.014-1.895-.907-2.027 1.115-1.385l2.236.71-2.218-3.115c-2.551-3.582-3.494-3.99-2.582-1.115.763 2.403-.733 2.629-2.59.392-1.131-1.364-1.059-1.81.475-2.932.995-.727 2.446-1.078 3.224-.78.98.376 1.224.049.795-1.069-.895-2.333-2.423-1.948-6.654 1.677m127.5 2.946c-3.711 4.547-4.012 5.766-1.424 5.766 2.431 0 6.174-4.095 6.174-6.755 0-3.494-1.316-3.22-4.75.989m9.37 7.437c-2.134 2.381-4.496 4.329-5.25 4.329-2.028 0-1.733.64 2.241 4.86l3.611 3.835 3.603-3.301c1.981-1.815 3.756-3.146 3.945-2.958.188.189-.383 3.142-1.27 6.564s-1.383 6.451-1.102 6.731c.28.281 2.275-.888 4.433-2.597s4.888-3.465 6.067-3.901c1.955-.723 2.013-.967.655-2.763-1.248-1.651-1.495-1.705-1.521-.335-.018.899-1.157 2.372-2.532 3.273-1.375.901-2.495 1.515-2.489 1.365.006-.15.634-2.326 1.396-4.835 1.266-4.174 1.225-4.771-.489-7-1.358-1.767-1.88-2.003-1.896-.858-.027 1.926-8.617 8.288-10.02 7.421-2.516-1.555.51-5.822 6.227-8.78l2.729-1.412-2.229-1.983-2.229-1.984-3.88 4.329M49.01 61.488c-1.002 1.207-1.004 1.815-.01 3.012 1.636 1.972 3.63 1.907 4.417-.143.346-.904.507-1.706.357-1.783-.151-.077-1.002-.693-1.891-1.369-1.304-.991-1.861-.936-2.873.283m5.262 4.448c-.94 1.506-.804 2.178.721 3.558C56.954 71.268 59 70.81 59 68.596c0-.707-.803-2.013-1.784-2.901-1.649-1.492-1.873-1.473-2.944.241M88.54 68.25c-.629 1.984-11.545 80.002-11.542 82.5.002 2.13.396 2.25 7.394 2.25 8.363 0 7.852.573 9.149-10.25.733-6.112.219-6.762-3.692-4.669-3.524 1.886-3.084.255.501-1.86 2.96-1.746 3.52-2.698 4.041-6.874.895-7.154 6.609-60.213 6.609-61.362 0-1.5-11.98-1.245-12.46.265M129 93.506v26.507l6.592-4.257 6.592-4.256-.592-16.41c-.326-9.025-.592-19.038-.592-22.25V67h-12v26.506m26.034-24.756c.102 5.207 3.773 38.39 4.307 38.924.346.346 3.111-1.019 6.144-3.033 4.077-2.706 5.515-4.273 5.515-6.005 0-2.678-3.816-28.49-4.492-30.386-.283-.796-2.456-1.25-5.977-1.25-4.614 0-5.525.29-5.497 1.75m-65.426 2c-1.395 6.968-9.687 67.579-9.415 68.822.222 1.015 2.031.309 6.557-2.56 5.168-3.276 6.258-4.441 6.297-6.737.026-1.526 1.505-16.162 3.288-32.525L99.575 68h-4.708c-4.336 0-4.752.217-5.259 2.75m-51.277 3.526c-2.296 3.776-2.882 5.56-2.128 6.469 1.691 2.037 2.556 1.444 2.015-1.383l-.504-2.638 5.142 2.888c2.828 1.588 5.152 3.563 5.165 4.388.016 1.004.67.674 1.979-1 1.761-2.251 2.869-5.202 1.403-3.736-.761.76-10.403-5.125-10.403-6.35 0-.503.955-.914 2.122-.914 1.774 0 1.918-.247.878-1.5-1.821-2.194-2.189-1.949-5.669 3.776m76.647 2.474c-.012.412-.662 12.437-1.445 26.722-.782 14.285-1.284 26.11-1.115 26.279.168.169 3.518-1.545 7.444-3.809l7.138-4.115V76h-6c-3.3 0-6.01.338-6.022.75m93.196 3.564c-2.74 2.917-2.756 6.008-.055 10.379 1.521 2.46 2.581 3.237 3.75 2.749.897-.374 2.194-.702 2.881-.728 1.521-.058 1.52-.028.117-3.106-1.001-2.197-1.304-2.313-2.616-1.002-2.018 2.018-3.751 1.238-3.751-1.689 0-3.057 6.81-6.838 9.397-5.217 2.043 1.28 2.614 4.98 1.057 6.855-1.404 1.693-.595 1.859 2.08.427 1.6-.856 1.738-1.453.868-3.75-2.691-7.102-9.413-9.51-13.728-4.918m-65.806 5.436c.306 2.612.844 10.938 1.196 18.5.353 7.563.901 13.75 1.219 13.75.318 0 3.322-1.788 6.677-3.974l6.1-3.974-1.206-13.776a6558.834 6558.834 0 00-1.28-14.526c-.04-.412-3.041-.75-6.668-.75h-6.594l.556 4.75M100 85.842c0 .463-.928 10.165-2.062 21.559-1.134 11.395-1.921 21.38-1.75 22.189.235 1.106 2.046.405 7.312-2.831l7-4.301 1.144-12.979c.629-7.139 1.191-15.567 1.25-18.729L113 85h-6.5c-3.575 0-6.5.379-6.5.842m.968 2.408c-.017 1.237-.888 10.792-1.934 21.233-1.046 10.44-1.803 19.082-1.681 19.203.122.122 2.95-1.504 6.284-3.612l6.063-3.834.684-11.37c.376-6.253.955-14.182 1.288-17.62l.604-6.25h-5.638c-5.171 0-5.641.186-5.67 2.25m-71.275 3.5c-1.95 5.438-2.095 6.616-.711 5.761C30.479 96.586 40 100.286 40 101.794c0 2.105 1.709.481 2.806-2.667.929-2.665.82-2.877-1.477-2.877-2.773 0-5.771-2.165-3.279-2.368.798-.066 1.787-.066 2.2 0 1.562.246.671-1.672-1-2.152a47.913 47.913 0 01-3.75-1.304c-1.79-.716-1.853-.62-.607.911 1.72 2.114.934 3.06-1.817 2.187-1.695-.538-1.885-1.012-1.04-2.591.569-1.063 1.72-1.933 2.558-1.933.838 0 1.246-.45.906-1-1.561-2.525-4.16-.847-5.807 3.75M216 101c-4.615 4.615-.912 13 5.742 13 3.554 0 7.258-3.828 7.258-7.5 0-1.227-.933-3.416-2.073-4.865-2.597-3.302-7.949-3.613-10.927-.635m-186.685 1.006c-4.915 1.983-5.906 9.597-1.68 12.921 1.449 1.14 3.719 2.073 5.045 2.073 3.322 0 7.32-4.241 7.32-7.766 0-2.723-3.091-7.234-4.957-7.234-.484 0-1.479-.197-2.211-.437-.733-.241-2.315-.041-3.517.443m187.796 2.703c-4.723 3.825.557 6.889 7.393 4.289 1.947-.74 2.551-1.588 2.315-3.25-.429-3.025-6.458-3.67-9.708-1.039m-50.961 3.837c-2.943 1.79-5.711 3.637-6.151 4.104-.563.598 1.738 31.732 2.964 40.1.069.466 14.7.253 15.175-.221.515-.516-5.573-46.336-6.232-46.894-.223-.189-2.814 1.121-5.756 2.911m-139.546-.956c-.336.875-.365 1.987-.065 2.473.843 1.364 8.121 3.281 9.886 2.604 2.196-.842 1.97-4.385-.359-5.632-3.029-1.621-8.756-1.285-9.462.555m123.985 11.032c-6.396 4.291-6.766 4.744-6.195 7.596.333 1.667.606 7.251.606 12.407V148h8c5.735 0 7.999-.354 7.997-1.25-.006-2.716-2.986-32.072-3.286-32.372-.176-.176-3.38 1.734-7.122 4.244m-15.318.693l-6.229 4.185-.021 9.75L129 143h7.617c7.41 0 7.6-.061 7.013-2.25-.331-1.238-.609-7.537-.616-14-.008-6.463-.352-11.721-.764-11.685-.412.036-3.553 1.948-6.979 4.25m93.729-3.23c0 .704-2.287.968-6.502.75l-6.502-.335.002 3.25c.001 1.787.452 3.25 1.002 3.25s1-.45 1-1 1.125-1 2.5-1c2.901 0 3.274 1.45.75 2.92-1.415.824-1.033 1.025 2 1.05 4.145.033 4.625-.585 2-2.578-1.591-1.208-1.5-1.331 1-1.36 2.25-.026 2.75.407 2.75 2.385 0 1.329-.562 2.643-1.25 2.921-.687.277-.238.54 1 .583 2.092.073 2.25-.342 2.25-5.921 0-3.333-.444-6-1-6-.55 0-1 .488-1 1.085m-194.747 9.642c2.686 2.968 2.244 5.279-1.003 5.241-2.634-.03-2.668-.094-.809-1.5C34.243 128.105 34.068 128 30 128c-3.915 0-4.186.143-2.543 1.345 1.759 1.286 1.746 1.369-.309 1.906-1.68.44-2.148.116-2.148-1.484 0-1.126.788-2.644 1.75-3.375 1.591-1.208 1.5-1.331-1-1.36-2.704-.031-2.75.07-2.75 6.09 0 4.741.282 5.907 1.25 5.168 1.923-1.469 10.656-1.613 12.355-.203 1.31 1.087 1.461.436 1.197-5.171-.282-5.984-.47-6.44-2.799-6.768-2.408-.339-2.435-.283-.75 1.579m84.997 3.983c-7.163 4.597-7.25 4.705-7.25 8.971V143h15v-9c0-4.95-.112-8.987-.25-8.971-.138.015-3.513 2.122-7.5 4.681m-15.713 1.265c-7.662 4.278-8.364 5.299-8.467 12.319l-.07 4.794 7.208-.294 7.209-.294.83-4c.456-2.2.7-6.793.541-10.207l-.288-6.206-6.963 3.888m113.465-1.475c-.016 1.1-.309 3.125-.652 4.5-.512 2.056-.385 2.278.714 1.25 1.611-1.507 5.936-1.666 5.936-.219 0 .568-.787 1.335-1.75 1.706-1.321.51-.893.851 1.743 1.393 3.375.693 5.803.059 3.257-.85-2.163-.773-1.358-2.28 1.219-2.28 1.916 0 2.332.392 1.86 1.75-.335.963-1.307 2.313-2.16 3-1.334 1.075-1.174 1.25 1.14 1.25 2.643 0 2.69-.112 2.612-6.25-.043-3.437-.306-5.688-.583-5.001-.619 1.534-11.439.544-12.573-1.15-.436-.653-.746-.287-.763.901m-113.782 3.111c-3.421 1.928-6.225 4.041-6.231 4.697-.006.656-.29 2.88-.631 4.942l-.62 3.75h12.974l.679-8.132c.373-4.473.536-8.274.363-8.447-.173-.174-3.114 1.262-6.534 3.19M35 138.786c0 .603.45 1.374 1 1.714.55.34 1 1.933 1 3.54 0 3.227-2.346 4.392-7.629 3.788-2.138-.244-2.956-.932-3.206-2.693-.184-1.301.154-2.854.75-3.45 1.685-1.685 1.284-2.55-.915-1.975-2.884.754-2.69 6.376.342 9.901 2.793 3.248 7.602 3.655 10.645.901 2.716-2.458 2.723-8.56.013-11.012-1.1-.995-2-1.317-2-.714m50.5 2.382c-6.069 2.384-6.093 2.409-6.924 7.082l-.667 3.75H90.728l.636-4.64c.835-6.089.803-8.383-.114-8.258-.412.057-3 .986-5.75 2.066m130.182.484c-.375.375-.678 1.844-.674 3.265.008 2.442.315 2.596 5.624 2.813 3.088.127 6.182.701 6.875 1.276.912.757 1.429.602 1.876-.562 1.62-4.221.841-4.938-5.517-5.089-3.365-.08-6.43-.649-6.811-1.265-.38-.616-.998-.813-1.373-.438m-1.227 10.803c-2.509 2.508-3.567 9.545-1.436 9.545.571 0 .759-1.036.428-2.356-.692-2.755 2.02-6.063 4.264-5.202.799.307 2.059.558 2.799.558 1.959 0 4.49 2.841 4.49 5.039 0 1.044-1.238 2.568-2.75 3.389-1.512.821-2.224 1.51-1.582 1.532.643.022 1.993.337 3 .699 1.008.363 1.51.304 1.117-.131s-.055-1.732.75-2.882c2.835-4.047 1.447-8.997-3.219-11.483-3.262-1.737-5.142-1.428-7.861 1.292M40 152.651c0 1.328-10.721 4.639-12.154 3.754-.807-.499-.929.141-.421 2.196.756 3.058 2.575 5.657 2.575 3.679 0-1.386 9.558-4.664 11.465-3.932 1.14.438 1.196-.04.314-2.657-1.19-3.528-1.779-4.536-1.779-3.04m-8.75 11.011c-1.746.705-1.569 2.362.832 7.79 1.75 3.957 2.268 4.462 3.25 3.173 1.395-1.832 10.232-5.728 11.076-4.883.868.867.725-.262-.41-3.247-.91-2.394-1.145-2.491-2.571-1.065-1.651 1.651-4.427 2.134-4.427.77 0-.44.54-1.34 1.2-2 1.689-1.689.254-1.491-3.5.482l-3.2 1.682 2.5.629 2.5.63-2.377 1.292c-1.962 1.066-2.527 1.055-3.235-.062-1.187-1.874-1.095-3.246.312-4.653 1.216-1.216.333-1.459-1.95-.538m176.25 4.058l-2.334 5.497c-.183.432.379.511 1.25.177 1.816-.697 2.058.852.569 3.635-1.073 2.003-4.385 1.633-3.433-.384.297-.63-.268-.041-1.256 1.309-.988 1.349-3.922 5.002-6.522 8.117-4.725 5.663-4.725 5.663-2.675 7.519 2.022 1.83 2.042 1.82 1.412-.691-.43-1.713-.128-2.972.922-3.844 1.314-1.09 2.139-.856 5.198 1.477 2 1.526 3.86 3.628 4.133 4.673.473 1.811.606 1.796 2.866-.327 2.252-2.116 3.333-4.591 1.515-3.467-1.223.755-9.145-6.264-9.145-8.102 0-1.563 2.051-1.5 12.964.393l3.465.601-1.884-2.902a1878.344 1878.344 0 00-4.331-6.626c-1.346-2.049-2.188-4.4-1.872-5.224.486-1.266 1.394-1.113 5.866.984 2.911 1.364 5.179 2.927 5.042 3.473-.524 2.08 1.482.875 2.589-1.555 1.462-3.208 1.485-4.771.058-3.889-1.233.762-10.897-3.437-10.897-4.735 0-2.23-1.708-.332-3.5 3.891m-124.911 2.357c-2.795 3.321-3.343 7.639-1.426 11.239 1.875 3.52 4.031 4.618 9.132 4.652 6.587.044 9.705-2.998 9.705-9.468 0-6.513-3.102-9.5-9.866-9.5-4.307 0-5.295.403-7.545 3.077m26.689-1.121c-4.058 3.78-4.052 10.354.011 14.794 2.998 3.275 10.49 3.178 13.641-.176 2.483-2.643 2.217-4.041-.928-4.863-1.348-.353-2.371.11-3.05 1.379-2.507 4.685-7.772.025-6.354-5.624.76-3.027 4.313-4.308 5.906-2.13.836 1.144 1.916 1.379 3.898.849l2.741-.733-2.144-2.726c-1.796-2.283-2.915-2.726-6.883-2.726-3.321 0-5.367.585-6.838 1.956m22.389-1.289c-.367.366-.667 4.641-.667 9.5V186h7.066c3.886 0 7.936-.466 9-1.035 2.399-1.284 2.548-5.629.279-8.136-.99-1.094-1.191-1.829-.5-1.829 1.524 0 1.489-5.266-.045-6.8-1.262-1.262-13.958-1.709-15.133-.533m26.257 1.914c-5.119 5.448-1.885 15.931 5.076 16.453 8.267.62 12-2.346 12-9.534 0-6.48-3.109-9.5-9.78-9.5-3.944 0-5.333.491-7.296 2.581m-70.353 2.99c-2.015 2.016-2.015 5.842 0 7.858 3.13 3.129 6.429 1.113 6.429-3.929s-3.299-7.058-6.429-3.929M138 172.5c0 1.128.702 1.539 2.25 1.32 1.238-.176 2.25-.77 2.25-1.32s-1.012-1.144-2.25-1.32c-1.548-.219-2.25.192-2.25 1.32m25.427-.735c-3.063 2.098-2.574 8.736.72 9.782 2.766.878 4.853-1.259 4.853-4.969 0-4.497-2.669-6.801-5.573-4.813M42 177l-2.5 1.956 2.25.022c2.775.027 2.887 1.143.28 2.771-1.68 1.049-2.132.928-3.07-.823-.813-1.52-.789-2.427.093-3.49 1.3-1.566.956-1.76-1.471-.829-2.251.864-1.979 2.282 1.418 7.393 1.645 2.475 2.993 3.976 2.996 3.336.006-1.58 9.854-7.547 11.142-6.751.565.349.307-.757-.572-2.458-1.595-3.084-1.605-3.088-3.583-1.11-2.565 2.565-4.3 2.557-3.483-.017.796-2.509-.292-2.509-3.5 0m166.638.5c-.347.905-.005 1.5.862 1.5s1.209-.595.862-1.5c-.317-.825-.705-1.5-.862-1.5-.157 0-.545.675-.862 1.5M138 180c0 1.646.518 2.065 2.25 1.82 1.238-.176 2.25-.995 2.25-1.82 0-.825-1.012-1.644-2.25-1.82-1.732-.245-2.25.174-2.25 1.82m-89.545 6.455c-3 2.999-3.132 6.415-.382 9.91 1.518 1.931 2.988 2.635 5.5 2.635 7.133 0 10.131-7.399 5.166-12.75-2.789-3.005-7.161-2.918-10.284.205m2.468 3.468c-3.291 3.292-3.546 4.315-1.495 6.017 2.93 2.432 10.591-3.842 9.18-7.518-.896-2.335-4.565-1.619-7.685 1.501m56.753-.521c-.78 2.032.4 2.78 2.126 1.348.975-.81.743.222-.679 3.008L106.959 198h3.021c1.661 0 3.02-.45 3.02-1s-.462-1-1.026-1c-.613 0-.467-1.107.363-2.75.764-1.512 1.188-3.312.942-4-.608-1.704-4.936-1.586-5.603.152m11.749-.067c-.311.811-.422 2.98-.245 4.82.271 2.829.753 3.395 3.128 3.667 2.768.318 2.803.255 2.5-4.5-.264-4.13-.631-4.868-2.562-5.142-1.302-.185-2.494.303-2.821 1.155m13.002-.57c-1.585 1.085-.545 9.235 1.178 9.235 1.007 0 1.395-1.39 1.395-5 0-4.927-.459-5.682-2.573-4.235m8.573.735c-.86 1.036-.898 1.5-.122 1.5.617 0 1.122 1.575 1.122 3.5 0 2.444.452 3.5 1.5 3.5 1.133 0 1.5-1.222 1.5-5 0-5.247-1.477-6.539-4-3.5m-74.761 15.166c-1.869.753-3.32 3.961-2.618 5.789.977 2.545 4.072 3.78 6.379 2.545 2.672-1.43 2.714-6.548.066-7.965-1.064-.569-2.077-.999-2.25-.956-.174.043-.884.308-1.577.587m120 0c-1.869.753-3.32 3.961-2.618 5.789.977 2.545 4.072 3.78 6.379 2.545 2.672-1.43 2.714-6.548.066-7.965-1.064-.569-2.077-.999-2.25-.956-.174.043-.884.308-1.577.587m-120.78 2.401c-1.076 1.741.149 2.11 1.521.457.789-.95.865-1.524.201-1.524-.584 0-1.36.48-1.722 1.067M188 206.378c0 .207.787.995 1.75 1.75 1.586 1.243 1.621 1.208.378-.378-1.307-1.666-2.128-2.195-2.128-1.372m-109.551 6.723c-1.422 2.806-2.361 5.686-2.087 6.4.274.714 2.133 1.837 4.131 2.497 3.168 1.045 3.892.964 5.662-.639 4.846-4.385 4.797-9.298-.12-11.841-4.301-2.224-4.752-2.011-7.586 3.583m-9.577-2.351c-1.243 1.586-1.208 1.621.378.378.963-.755 1.75-1.543 1.75-1.75 0-.823-.821-.294-2.128 1.372M185 209.819c0 1.208 1.897 2.617 2.591 1.924.251-.252-.229-1.027-1.067-1.723-.95-.789-1.524-.865-1.524-.201m-9 3.855v3.675l-2.496-2.345c-4.028-3.784-4.223-1.324-.22 2.775 2.759 2.825 3.51 4.294 3.065 5.996-.468 1.788-.255 2.126 1.03 1.633 1.759-.675 2.003-3.341.985-10.768-.757-5.525-2.364-6.181-2.364-.966m-95.356.947c-1.879 3.94-1.198 5.331 2.627 5.364 2.401.02 4.473-4.582 3.068-6.813-1.838-2.918-3.858-2.404-5.695 1.449m83.273-1.371c-.551 1.652-.396 4.75.237 4.75.45 0 1.477 1.575 2.282 3.5.804 1.925 2.133 3.5 2.954 3.5 2.134 0 3.022-1.905 1.211-2.599-1.489-.572-3.212-4.104-2.781-5.705.344-1.279-3.496-4.669-3.903-3.446M158 215.5c0 .825.45 1.5 1 1.5s1-.675 1-1.5-.45-1.5-1-1.5-1 .675-1 1.5m-64.75 2.162c-2.13.86-1.377 2.338 1.191 2.338 1.343 0 2.76.516 3.149 1.146.501.811-.094.944-2.037.457-2.964-.744-5.553.687-5.553 3.07 0 1.136 5.436 4.327 7.37 4.327.644 0 2.63-6.034 2.63-7.989 0-1.294-4.153-4.377-5.297-3.932-.112.043-.765.306-1.453.583m53.405 1.167c-3.753 4.146-.661 12.171 4.69 12.171 2.656 0 5.655-2.826 5.655-5.329 0-2.28-1.724-2.115-2.471.237-.957 3.016-3.762 3.523-5.77 1.042-2.182-2.694-2.248-5.299-.178-7.017 1.26-1.046 1.98-1.064 3.541-.089 2.473 1.544 4.44.539 2.804-1.433-1.65-1.989-6.306-1.753-8.271.418m12.712 1.497c1.375 5.477 2.701 8.006 3.683 7.024 1.236-1.236-1.175-8.558-3.022-9.174-.956-.319-1.135.262-.661 2.15m-55.817 4.315c1.139 7.85 1.972 8.191 5.817 2.38 3.015-4.556 3.135-5.021 1.294-5.021-.737 0-1.946 1.238-2.687 2.75l-1.347 2.75-.563-3.421c-.31-1.881-1.161-3.617-1.892-3.859-1.043-.345-1.176.602-.622 4.421m12.7-1.578c-3.333 1.293-2.775 2.992.75 2.287 1.911-.382 3-.192 3 .525 0 .619-1.302 1.125-2.893 1.125-3.213 0-4.82 2.436-3.03 4.593.611.736 2.644 1.281 4.517 1.211 3.006-.113 3.424-.461 3.556-2.966.083-1.561.195-3.346.25-3.966.176-1.99-3.698-3.76-6.15-2.809m10.95 1.137c-1.954 1.954-1.483 7.578.734 8.765 2.628 1.406 3.652 1.306 5.495-.536 2.229-2.23 2.018-7.119-.363-8.394-2.542-1.36-4.393-1.308-5.866.165m-34.7.8c.34.55 1.24 1 2 1s1.66-.45 2-1c.352-.569-.509-1-2-1s-2.352.431-2 1m35.862 1.5c-.804 2.095.291 4.5 2.048 4.5 2.006 0 2.847-1.615 2.087-4.009-.742-2.34-3.309-2.645-4.135-.491M116 230c0 .55.648 1 1.441 1s1.719-.45 2.059-1c.34-.55-.309-1-1.441-1-1.132 0-2.059.45-2.059 1" fill="#1976D2" fill-rule="evenodd"/><path fill-opacity=".986" d="M124.441 10.555c-1.91 1.53-1.909 1.541.059.635 1.1-.506 2.675-1.17 3.5-1.476 1.296-.48 1.288-.567-.059-.635-.857-.043-2.432.621-3.5 1.476m5.559-.096c0 .275 1.8 1.419 4 2.541 2.2 1.122 4 1.816 4 1.541 0-.275-1.8-1.419-4-2.541-2.2-1.122-4-1.816-4-1.541m-29.09 4.791c-2.494 2.337-3.382 3.314-1.972 2.17a224.458 224.458 0 015.447-4.25c1.587-1.194 2.474-2.17 1.972-2.17-.501 0-2.953 1.912-5.447 4.25M149 11.734c.825.316 3.975 2.581 7 5.031l5.5 4.456-5.5-5.099c-3.025-2.805-6.175-5.069-7-5.032-1.333.06-1.333.132 0 .644m-31.559 2.821c-1.864 1.494-1.852 1.512.309.465 1.237-.6 2.25-1.3 2.25-1.555 0-.765-.519-.544-2.559 1.09m50.059 3.513c-1.573.729-1.347.813 1.054.393 2.723-.476 3.405-.046 6.286 3.965 1.777 2.475 3.73 4.808 4.34 5.185.61.377-.81-1.856-3.156-4.963-4.376-5.797-5.082-6.176-8.524-4.58M81 21c-1.175 1.65-1.911 3-1.636 3 .275 0 1.461-1.35 2.636-3s1.911-3 1.636-3c-.275 0-1.461 1.35-2.636 3m6.762-2.293c1.244.239 3.044.23 4-.02s-.062-.446-2.262-.435c-2.2.011-2.982.216-1.738.455m75.051.976c.721.289 1.584.253 1.916-.079.332-.332-.258-.568-1.312-.525-1.165.048-1.402.285-.604.604M77.45 25.949c-.523.522-4.1 1.109-7.95 1.304l-7 .355 7.128.196c5.298.146 7.447-.189 8.372-1.304 1.37-1.65.961-2.06-.55-.551m45.843-.322c.345.345-.086 2.005-.957 3.69-1.528 2.954-1.636 2.994-3.029 1.123-.794-1.067-1.794-2.549-2.223-3.293-.428-.744-1.531-1.194-2.452-1-1.458.308-1.35.827.848 4.05 1.386 2.033 2.52 4.846 2.52 6.25 0 1.806.535 2.553 1.827 2.553 1.436 0 1.738-.605 1.411-2.83-.254-1.733.393-4.157 1.67-6.25 2.383-3.91 2.573-4.92.925-4.92-.641 0-.884.282-.54.627M135 28.757c0 2.066-.404 5.166-.898 6.888-.882 3.074-.826 3.143 3.033 3.761 2.163.345 4.817.155 5.899-.424 2.394-1.281 2.582-4.532.313-5.403-1.491-.571-1.466-.774.25-2.048 1.519-1.129 1.68-1.779.796-3.222-.609-.995-1.945-1.973-2.968-2.174-1.603-.315-1.677-.143-.531 1.237 1.623 1.955.77 4.628-1.476 4.628-1.254 0-1.542-.704-1.21-2.962.284-1.938-.05-3.147-.969-3.5-2.187-.839-2.239-.764-2.239 3.219m-34.25-.554c-2.184.58-3.75 1.61-3.75 2.468 0 1.25.238 1.234 1.581-.109 2.253-2.253 2.97-1.39 4.387 5.286 1.015 4.786 1.58 5.821 2.977 5.456 1.572-.411 1.607-.903.389-5.595-1.824-7.034-1.733-8.047.666-7.419 1.1.287 2 .115 2-.384 0-1.128-3.337-1.008-8.25.297m81.25-.636c3.359.751 10.778.882 10.346.183-.255-.413-3.025-.698-6.155-.634-3.13.064-5.016.267-4.191.451m-31.775 1.183c.123.413-.388 2.897-1.136 5.521-1.235 4.329-1.195 4.955.43 6.75 2.216 2.448 5.799 2.557 7.56.229 1.127-1.489 1.115-1.563-.077-.5-1.816 1.619-4.928 1.606-5.554-.024-.268-.701.191-3.513 1.021-6.25C154.395 28.125 154.386 28 152 28c-1.1 0-1.899.337-1.775.75m-89.063 2.793c-1.675 3.677-1.355 4.462.456 1.119.846-1.562 1.351-3.026 1.123-3.255-.229-.228-.939.733-1.579 2.136m98.169 1.709c-.135 2.604 0 2.852.68 1.248 1.09-2.57 1.193-4.501.239-4.498-.412.001-.826 1.464-.919 3.25m-68.989-1.62c-.805.329-.392 2.368 1.349 6.671 2.968 7.331 2.643 6.89 4.546 6.16 1.337-.513 1.301-1.043-.292-4.341-.999-2.066-2.118-4.964-2.489-6.439-.678-2.704-1-2.916-3.114-2.051m47.126 3.469c-.367 1.155-.169 2.598.44 3.207 1.539 1.539 4.381-1.391 3.522-3.63-.897-2.338-3.162-2.096-3.962.423m26.412 4.366c-2.291 5.628-2.417 6.476-1 6.755 2.034.401 7.367-11.29 5.682-12.457-1.762-1.219-1.965-.972-4.682 5.702M82.021 35.17C77.902 36.724 76 39.088 76 42.655 76 46.607 78.94 50 82.365 50 84.975 50 90 46.515 90 44.705c0-.633-.719-.124-1.597 1.13-2.434 3.475-6.418 2.571-8.873-2.014-1.95-3.642-1.95-3.699-.028-5.824 1.25-1.381 2.754-1.99 4.22-1.71 1.253.24 2.278.075 2.278-.367 0-1.432-1.447-1.705-3.979-.75M196.5 37c.853 1.65 1.776 3 2.051 3 .275 0-.198-1.35-1.051-3s-1.776-3-2.051-3c-.275 0 .198 1.35 1.051 3m-24.788 5.912l-3.521 5.911 4.382 2.325c4.139 2.196 4.467 2.229 5.908.592.84-.953.985-1.284.323-.736-1.633 1.352-3.071 1.252-5.284-.366-1.784-1.304-1.729-1.578 1.334-6.555 2.931-4.763 3.325-7.083 1.204-7.083-.453 0-2.409 2.66-4.346 5.912M56.5 39c-1.63.701-1.688.872-.309.93.93.038 1.969-.38 2.309-.93.711-1.15.676-1.15-2 0m-6.231 1.693c.973.254 2.323.237 3-.037.677-.274-.119-.481-1.769-.461-1.65.02-2.204.244-1.231.498m151.481-.031c.688.278 1.813.278 2.5 0 .688-.277.125-.504-1.25-.504s-1.937.227-1.25.504M45.459 42.067c-.363.586-.445 1.281-.183 1.543s.743-.218 1.069-1.067c.676-1.762.1-2.072-.886-.476m73.488 1.677c4.048.278 5.81.892 6.858 2.388l1.411 2.014 2.142-2.006c1.28-1.199 3.954-2.165 6.642-2.399l4.5-.392-4.628-.174c-3.068-.116-5.047.33-5.872 1.325-.685.825-1.817 1.5-2.515 1.5-.699 0-1.53-.675-1.847-1.5-.432-1.126-2.017-1.454-6.357-1.315l-5.781.185 5.447.374m91.132.839c.048 1.165.285 1.402.604.605.289-.722.253-1.585-.079-1.917-.332-.332-.568.258-.525 1.312m-100.266.1c.721.289 1.584.253 1.916-.079.332-.332-.258-.568-1.312-.525-1.165.048-1.402.285-.604.604m32.937-.021c.688.278 1.813.278 2.5 0 .688-.277.125-.504-1.25-.504s-1.937.227-1.25.504m-37.937 1.021c.721.289 1.584.253 1.916-.079.332-.332-.258-.568-1.312-.525-1.165.048-1.402.285-.604.604m44 0c.721.289 1.584.253 1.916-.079.332-.332-.258-.568-1.312-.525-1.165.048-1.402.285-.604.604m35.41 4.76c-3.879 4.966-4.038 5.414-2.435 6.865 4.549 4.117 10.3 3.788 12.347-.705 1.544-3.389.39-7.093-2.951-9.472l-2.811-2.002-4.15 5.314m-140.144-2.86c.048 1.165.285 1.402.604.605.289-.722.253-1.585-.079-1.917-.332-.332-.568.258-.525 1.312m16.579 1.547l-3.798 3.131 2.919 3.119c1.605 1.716 3.58 4.116 4.388 5.332l1.469 2.213 3.682-3.035c2.025-1.67 3.646-3.79 3.603-4.713-.064-1.371-.18-1.403-.63-.177-.304.825-1.241 2.291-2.084 3.258-1.43 1.641-1.654 1.648-3.369.095C64.567 56.298 64.484 55 66.622 55c1.335 0 1.4-.269.369-1.511-1.097-1.321-1.395-1.328-2.373-.051-.949 1.239-1.385 1.095-2.882-.946-1.706-2.326-1.695-2.443.328-3.526 1.151-.616 2.796-.85 3.656-.52 1.299.498 1.349.343.299-.923-.695-.838-1.331-1.523-1.414-1.523-.082 0-1.858 1.409-3.947 3.13m92.155-2.447c.721.289 1.584.253 1.916-.079.332-.332-.258-.568-1.312-.525-1.165.048-1.402.285-.604.604M94 49c-.825.533-1.05.969-.5.969s1.675-.436 2.5-.969c.825-.533 1.05-.969.5-.969s-1.675.436-2.5.969m65.083-.661c1.579 1.287 11.801 6.283 11.346 5.545-.596-.964-9.846-5.884-11.062-5.884-.385 0-.513.153-.284.339m27.58 4.028c-4.181 5.102-4.217 5.206-2.091 6.022 2.285.877 5.173-.996 7.008-4.543 1.386-2.681 1.409-3.286.173-4.522-1.237-1.236-1.918-.829-5.09 3.043m-144.426.393c-1.168 2.491-1.14 2.572.366 1.066.896-.896 1.464-2.109 1.263-2.695-.201-.586-.935.147-1.629 1.629M212 51.941c0 .518.445 1.216.989 1.552.566.35.734-.051.393-.941-.665-1.732-1.382-2.049-1.382-.611M84.667 53.667C84.3 54.033 84 55.35 84 56.593c0 1.312-.734 2.452-1.75 2.718-1.382.361-1.3.481.391.573 1.731.094 2.218-.554 2.549-3.384.445-3.814.447-3.804-.523-2.833M37 56c-.825.533-1.05.969-.5.969s1.675-.436 2.5-.969c.825-.533 1.05-.969.5-.969s-1.675.436-2.5.969m14.326 1.846c-.783 1.24-.466 2.043 1.381 3.496 2.282 1.795 2.315 1.976.676 3.787-1.69 1.868-1.76 1.865-3.866-.113-2.542-2.388-3.125-2.481-3.841-.614-.328.854 1.422 3.054 4.477 5.63 4.374 3.688 5.2 4.044 6.46 2.783 1.261-1.261 1.123-1.619-1.083-2.799-2.885-1.544-3.214-3.203-1.001-5.04 1.266-1.051 1.929-.894 3.85.911 1.997 1.876 2.489 1.977 3.526.727.955-1.15.9-1.626-.262-2.283-.807-.457-3.23-2.466-5.384-4.463-3.407-3.159-4.05-3.423-4.933-2.022m144.328 3.039c-3.922 3.812-4.587 4.926-3.488 5.838 1.942 1.612 11.981-7.862 10.147-9.575-1.553-1.451-1.003-1.76-6.659 3.737m24.846-3.73c1.1.601 2.563 1.799 3.25 2.66 1.106 1.387 1.25 1.391 1.25.037 0-.842-1.146-2.053-2.547-2.691-3.209-1.462-4.623-1.467-1.953-.006M32 58c-.825.533-1.05.969-.5.969s1.675-.436 2.5-.969c.825-.533 1.05-.969.5-.969s-1.675.436-2.5.969m38.307 6.381c-3.194 2.959-7.307 7.572-9.141 10.25-1.834 2.678-2.378 3.744-1.21 2.369 1.169-1.375 3.966-4.678 6.217-7.34 2.252-2.662 5.901-6.15 8.11-7.75 2.209-1.601 3.525-2.91 2.924-2.91s-3.706 2.421-6.9 5.381m103.506-4.698c.721.289 1.584.253 1.916-.079.332-.332-.258-.568-1.312-.525-1.165.048-1.402.285-.604.604m5.214.959c1.36.904 5.643 4.616 9.518 8.25 5.673 5.321 5.438 5.001-1.207-1.642-4.538-4.538-8.821-8.25-9.517-8.25-.696 0-.153.739 1.206 1.642M30.252 64.5c.011 2.2.216 2.982.455 1.738.239-1.244.23-3.044-.02-4s-.446.062-.435 2.262m175.581-.75c-.554 1.247-7.619 6.25-8.825 6.25-.619 0-.843.457-.498 1.016.368.596 2.141-.231 4.287-2 2.012-1.659 3.978-3.016 4.368-3.016.389 0-.103 2.925-1.094 6.5-.991 3.575-1.494 6.5-1.117 6.5.376 0 3.097-1.8 6.046-4 2.949-2.2 5.013-4 4.588-4-.425 0-1.925.906-3.333 2.014-1.408 1.108-2.746 1.828-2.973 1.601-.228-.227.096-2.306.719-4.619.623-2.313.892-4.833.597-5.601-.574-1.495-2.217-1.878-2.765-.645M225 68.941c0 1.618.356 3.161.791 3.43.435.269.611-1.055.391-2.941-.491-4.203-1.182-4.489-1.182-.489M93.978 67.745c3.013.207 5.819.911 6.235 1.565.508.799.761.615.772-.56.013-1.501-.874-1.724-6.235-1.565l-6.25.185 5.478.375M129 93c0 14.3.25 26 .555 26 .305 0 3.242-1.825 6.526-4.055l5.971-4.055-.571-17.695c-.315-9.732-.804-19.607-1.088-21.945l-.516-4.25H129v26m26.669-25.25c-.41.683 2.918 37.511 3.564 39.45.41 1.23 11.767-6.136 11.767-7.631 0-1.611-3.832-27.292-4.524-30.319-.448-1.959-1.151-2.25-5.436-2.25-2.707 0-5.124.338-5.371.75M38.743 74.541C35.841 79.345 35.386 81 36.969 81c.532 0 .727-.629.431-1.399-1.081-2.818 1.769-2.668 6.677.351 4.548 2.799 6.923 3.211 6.923 1.2 0-.401-2.529-2.262-5.619-4.135l-5.619-3.406 2.23-1.805C43.36 70.698 43.693 70 42.854 70c-.753 0-2.603 2.043-4.111 4.541M88.195 72.5c.02 1.65.244 2.204.498 1.231.254-.973.237-2.323-.037-3-.274-.677-.481.119-.461 1.769M24.25 75.092c-3.749 2.84-5.211 4.611-5.114 6.193l.136 2.215.434-2.25c.238-1.237 2.404-3.606 4.813-5.263 3.657-2.516 6.485-5.152 5.29-4.93-.17.032-2.671 1.848-5.559 4.035M99.232 76c0 1.925.206 2.713.457 1.75.252-.963.252-2.537 0-3.5-.251-.963-.457-.175-.457 1.75M228.5 73.622c2.319 2.292 8.5 6.415 8.5 5.669 0-.445-1.012-1.437-2.25-2.203-6.182-3.829-7.172-4.378-6.25-3.466M115.012 78.25c.007 1.237-.524 12.931-1.181 25.986-.656 13.054-.922 24.006-.592 24.337.331.33 3.554-1.126 7.162-3.236l6.561-3.837.019-22.75L127 76h-6c-5.559 0-5.999.165-5.988 2.25M87.195 79.5c.02 1.65.244 2.204.498 1.231.254-.973.237-2.323-.037-3-.274-.677-.481.119-.461 1.769m110.316-.123c.946 1.443 1.908 2.623 2.139 2.623.724 0-1.605-3.854-2.759-4.567-.604-.374-.325.501.62 1.944m11.54.381c-1.352 1.094-2.205 2.96-2.262 4.945-.098 3.47 2.52 8.306 4.484 8.282 2.255-.028 3.801-1.628 3.168-3.277-.569-1.485-.841-1.492-2.992-.082-2.27 1.487-2.395 1.437-3.059-1.209-.563-2.241-.184-3.197 2.014-5.088 4.816-4.142 10.384-2.232 9.345 3.205-.268 1.4-.062 2.404.457 2.231.519-.173.91-.641.869-1.04-.041-.399-.075-1.645-.075-2.77 0-2.807-4.38-6.955-7.344-6.955-1.339 0-3.411.791-4.605 1.758M54.432 84.526c-2.375 4.053-2.523 4.841-1.408 7.532.685 1.654 1.426 2.825 1.648 2.603.222-.221-.123-1.557-.766-2.969-1.008-2.211-.799-3.198 1.504-7.129C56.881 82.053 57.859 80 57.584 80c-.275 0-1.693 2.037-3.152 4.526m93.256-2.787c5.849.334 6.211.502 6.6 3.057.375 2.46.426 2.411.562-.546L155 81l-6.75.193-6.75.192 6.188.354m87.507 2.761c.02 1.65.244 2.204.498 1.231.254-.973.237-2.323-.037-3-.274-.677-.481.119-.461 1.769m-137 1c.02 1.65.244 2.204.498 1.231.254-.973.237-2.323-.037-3-.274-.677-.481.119-.461 1.769m103.5.987c.915 1.919 1.841 3.31 2.058 3.093.457-.457-2.578-6.58-3.263-6.58-.251 0 .291 1.569 1.205 3.487M20.158 86c0 1.375.227 1.938.504 1.25.278-.687.278-1.812 0-2.5-.277-.687-.504-.125-.504 1.25m66.037.5c.02 1.65.244 2.204.498 1.231.254-.973.237-2.323-.037-3-.274-.677-.481.119-.461 1.769m57.148 5c.003 4.4.179 6.076.39 3.724.212-2.352.209-5.952-.006-8s-.388-.124-.384 4.276m-42.969-5.033c-.309.807-.37 2.044-.134 2.75s.666.046.956-1.467c.566-2.953.099-3.682-.822-1.283m6.819-.734c4.593.364 4.701.45 5.082 4.069l.389 3.698.168-4.25L113 85l-5.25.18-5.25.18 4.693.373M30.932 89.68c-2.12 5.574-1.78 6.231 4.568 8.843 3.3 1.357 6.06 2.47 6.133 2.472.074.003.369-.895.657-1.995.366-1.402.028-2.005-1.134-2.015-.911-.009-2.302-.424-3.092-.924-1.138-.72-1.184-1.211-.224-2.368.969-1.168.89-1.583-.396-2.076-2.283-.876-2.317-.846-1.704 1.497.482 1.844.247 2.02-1.844 1.376-3.448-1.062-3.538-1.307-1.674-4.555.927-1.614 1.245-2.935.707-2.935-.538 0-1.437 1.206-1.997 2.68m-14.268 4.867c-2.66 2.991-4.608 6.003-4.329 6.695.34.844.533.746.586-.296.043-.854 1.691-3.104 3.661-5 3.025-2.91 6.173-7.079 5.203-6.891-.157.031-2.461 2.502-5.121 5.492M155.3 94c0 3.025.187 4.263.416 2.75.229-1.513.229-3.987 0-5.5s-.416-.275-.416 2.75m78.779-3.962c-.043.845 2.284 3.77 5.171 6.5l5.25 4.962-4.631-5c-2.547-2.75-4.874-5.675-5.171-6.5-.471-1.308-.55-1.303-.619.038M85.195 93.5c.02 1.65.244 2.204.498 1.231.254-.973.237-2.323-.037-3-.274-.677-.481.119-.461 1.769m12.037.5c0 1.925.206 2.713.457 1.75.252-.963.252-2.537 0-3.5-.251-.963-.457-.175-.457 1.75M201 93.978c0 .822 4.956 2.399 5.58 1.775.189-.189-.989-.846-2.618-1.461-1.629-.615-2.962-.756-2.962-.314M48.123 97.629c-.659 1.446-.997 2.83-.752 3.076.246.245.752-.517 1.126-1.694.373-1.177 1.652-2.533 2.841-3.012 2.141-.864 2.142-.873.073-.936-1.323-.04-2.53.903-3.288 2.566M99.232 98c0 1.925.206 2.713.457 1.75.252-.963.252-2.537 0-3.5-.251-.963-.457-.175-.457 1.75m-15.037 2.5c.02 1.65.244 2.204.498 1.231.254-.973.237-2.323-.037-3-.274-.677-.481.119-.461 1.769m27.077 2.5c0 2.475.195 3.487.434 2.25.238-1.237.238-3.263 0-4.5-.239-1.237-.434-.225-.434 2.25m105.183-1.545c-3.169 3.168-3.128 6.963.111 10.202 2.078 2.078 3.17 2.446 5.737 1.932 3.671-.734 5.189-2.097 6.223-5.589.721-2.437.689-2.455-1.255-.72-4.901 4.374-12.734 3.987-12.082-.597.411-2.885 7.195-5.285 10.58-3.742 2.061.939 2.192.855 1.29-.831-2.052-3.835-7.112-4.148-10.604-.655M96.232 104c0 1.925.206 2.713.457 1.75.252-.963.252-2.537 0-3.5-.251-.963-.457-.175-.457 1.75M156 105.396c0 4.161-.259 4.561-4.838 7.5-2.66 1.707-5.115 3.104-5.456 3.104-.34 0-.782-3.037-.981-6.75l-.363-6.75-.04 7.75c-.022 4.263.146 7.75.374 7.75.227 0 3.089-1.817 6.359-4.037 5.769-3.918 5.945-4.17 5.945-8.5 0-2.455-.225-4.463-.5-4.463s-.5 1.978-.5 4.396m-128.345-1.567c-2.06 2.276-2.18 3.851-.166 2.18 2.074-1.721 8.015-.443 10.629 2.287l2.109 2.204-.7-2.5c-1.54-5.494-8.471-7.93-11.872-4.171m17.969-.29c-.343.893-.595 2.15-.561 2.793.035.642.495.09 1.022-1.227.527-1.318.779-2.574.56-2.793-.219-.219-.679.333-1.021 1.227m196 0c-.965 2.514-.681 3.163.498 1.136.584-1.004.851-2.036.593-2.293-.257-.258-.749.263-1.091 1.157M83.195 107.5c.02 1.65.244 2.204.498 1.231.254-.973.237-2.323-.037-3-.274-.677-.481.119-.461 1.769m15.037.5c0 1.925.206 2.713.457 1.75.252-.963.252-2.537 0-3.5-.251-.963-.457-.175-.457 1.75m-84.201-1.5c0 .55.436 1.675.969 2.5.533.825.969 1.05.969.5s-.436-1.675-.969-2.5c-.533-.825-.969-1.05-.969-.5m151.237 2.838c-6.142 3.711-5.965 2.55-3.768 24.662.792 7.975 1.454 15.287 1.47 16.25.026 1.508 1.065 1.75 7.53 1.75 5.336 0 7.5-.361 7.5-1.251 0-.688-1.35-10.925-3-22.749-1.65-11.824-3-21.611-3-21.749 0-.692-1.983.217-6.732 3.087M25 109.935c0 2.578 3.021 5.867 6.043 6.579 2.666.628 7.957-2.555 7.957-4.787 0-.796-.353-.774-1.2.073-2.1 2.1-7.666 1.425-10.345-1.255-2.165-2.164-2.455-2.236-2.455-.61m19.079-.352c.048 1.165.285 1.402.604.605.289-.722.253-1.585-.079-1.917-.332-.332-.568.258-.525 1.312m167 1c.048 1.165.285 1.402.604.605.289-.722.253-1.585-.079-1.917-.332-.332-.568.258-.525 1.312M95.252 113.5c.011 2.2.216 2.982.455 1.738.239-1.244.23-3.044-.02-4s-.446.062-.435 2.262m143.827-2.372c-.043.895.708 2.245 1.671 3 1.521 1.192 1.604 1.175.634-.128-.613-.825-1.365-2.175-1.671-3-.464-1.255-.568-1.234-.634.128m-226.975 5.71c-3.288 5.124-3.715 6.667-2.115 7.655.567.351.733-.053.39-.949-.33-.858.126-2.681 1.011-4.052l3.225-4.992c.888-1.375 1.385-2.5 1.104-2.5-.281 0-1.907 2.177-3.615 4.838M43.158 114c0 1.375.227 1.938.504 1.25.278-.687.278-1.812 0-2.5-.277-.687-.504-.125-.504 1.25m39.037.5c.02 1.65.244 2.204.498 1.231.254-.973.237-2.323-.037-3-.274-.677-.481.119-.461 1.769m28.077 1.5c0 2.475.195 3.487.434 2.25.238-1.237.238-3.263 0-4.5-.239-1.237-.434-.225-.434 2.25m40.999 2.315l-6.229 4.185-.021 12.75L145 148h8c6.982 0 7.99-.223 7.921-1.75-.047-1.045-.282-1.247-.583-.5-.336.831-2.824 1.25-7.421 1.25H146V123.053l5.25-3.543 5.25-3.543.632 2.767c.571 2.502.643 2.409.75-.984.065-2.062.005-3.721-.132-3.685-.137.036-3.053 1.948-6.479 4.25m60.924-1.815c.02 1.65.244 2.204.498 1.231.254-.973.237-2.323-.037-3-.274-.677-.481.119-.461 1.769m-76.456 3.021L129 124.042V143h14v-14c0-7.7-.117-14-.261-14-.143 0-3.293 2.034-7 4.521M97.195 118.5c.02 1.65.244 2.204.498 1.231.254-.973.237-2.323-.037-3-.274-.677-.481.119-.461 1.769M242 116.378c0 .207.787.995 1.75 1.75 1.586 1.243 1.621 1.208.378-.378-1.307-1.666-2.128-2.195-2.128-1.372m-22.142 1.344c-2.895.307-3.548.748-3.182 2.149.351 1.339 1.202 1.654 3.545 1.31 2.767-.406 3.025-.228 2.51 1.74-.376 1.438-.17 2.044.598 1.761.644-.238 1.035-1.01.868-1.715-.357-1.514 1.588-2.93 4.053-2.952 2.053-.018 2.426 3.909.55 5.785-.933.933-.822 1.2.5 1.2 1.793 0 2.253-3.335 1.07-7.75-.63-2.348-1.532-2.479-10.512-1.528m-177.654 9.406c-.17 7.184.089 8.857 1.546 10 1.537 1.205 1.603 1.183.544-.178-.664-.852-1.36-5.352-1.547-10l-.34-8.45-.203 8.628m38.991-5.628c.02 1.65.244 2.204.498 1.231.254-.973.237-2.323-.037-3-.274-.677-.481.119-.461 1.769m13.057 1c.011 2.2.216 2.982.455 1.738.239-1.244.23-3.044-.02-4s-.446.062-.435 2.262m11.189 2.055c-1.864 1.494-1.852 1.512.309.465 1.237-.6 2.25-1.3 2.25-1.555 0-.765-.519-.544-2.559 1.09m52.845 2.945c.008 2.75.202 3.756.432 2.236.229-1.52.223-3.77-.014-5-.237-1.23-.425.014-.418 2.764m54.946-.5c0 1.925.206 2.713.457 1.75.252-.963.252-2.537 0-3.5-.251-.963-.457-.175-.457 1.75m-189.873-.492c-.318.829-.284 3.079.076 5l.656 3.492h6.454c5.584 0 6.455-.246 6.455-1.827 0-1.461-.601-1.738-3-1.386-3.136.46-3.838-.549-1.8-2.587.933-.933.556-1.2-1.7-1.2-2.256 0-2.633.267-1.7 1.2 1.945 1.945 1.396 2.8-1.8 2.8-3.454 0-4.028-2.207-1.345-5.171 1.541-1.703 1.539-1.829-.031-1.829-.928 0-1.947.678-2.265 1.508m12.279-.008c.317.825.753 1.5.969 1.5.216 0 .393-.675.393-1.5s-.436-1.5-.969-1.5c-.532 0-.709.675-.393 1.5M244 127c-.589 1.1-.845 2-.57 2s.981-.9 1.57-2c.589-1.1.845-2 .57-2s-.981.9-1.57 2m-231.5 2c.853 1.65 1.776 3 2.051 3 .275 0-.198-1.35-1.051-3s-1.776-3-2.051-3c-.275 0 .198 1.35 1.051 3m67.695-.5c.02 1.65.244 2.204.498 1.231.254-.973.237-2.323-.037-3-.274-.677-.481.119-.461 1.769m15.805.059c0 1.407.408 2.307.906 1.999.498-.308.671-1.46.383-2.559-.719-2.752-1.289-2.504-1.289.56m4.441-1.004c-1.864 1.494-1.852 1.512.309.465 1.237-.6 2.25-1.3 2.25-1.555 0-.765-.519-.544-2.559 1.09m18.809 2.49c-6.139 3.933-6.25 4.083-6.25 8.479V143h14v-8.5c0-4.675-.338-8.491-.75-8.479-.412.012-3.562 1.822-7 4.024m-9.44 1.455c.225 1.925.585 3.5.799 3.5.215 0 .391-1.575.391-3.5s-.36-3.5-.799-3.5c-.44 0-.616 1.575-.391 3.5m-16.694-.25c-.064 1.512-.454 2.76-.866 2.772-.412.012-1.875.95-3.25 2.084l-2.5 2.061 3.362-1.834c3.713-2.025 4.539-3.321 3.839-6.025-.307-1.183-.509-.857-.585.942m8.634.818c-2.062 1.089-3.75 2.203-3.75 2.476 0 .273 1.8-.422 4-1.544s4-2.257 4-2.52c0-.654-.007-.652-4.25 1.588m115.25-.175c0 1.674.616 2.107 3 2.107 3.05 0 4.267 2.322 1.75 3.338-.687.277.078.54 1.7.583 2.294.061 2.683-.188 1.75-1.121-1.962-1.962-1.378-2.953 1.541-2.616 3.225.372 4.061 2.872 1.738 5.195-1.343 1.342-1.372 1.621-.167 1.621 1.58 0 2.653-2.907 2.674-7.25.014-2.663-.157-2.75-5.404-2.75-2.98 0-6.13-.273-7-.607-1.134-.435-1.582-.01-1.582 1.5m24.024.062c-.819 1.531-.459 3.153 1.661 7.476l2.708 5.521-2.418 2.774-2.419 2.774 2.937-2.737 2.936-2.738-2.726-5.557c-2.135-4.354-2.499-5.981-1.679-7.513.576-1.075.821-1.955.546-1.955-.275 0-.97.88-1.546 1.955M79.195 135.5c.02 1.65.244 2.204.498 1.231.254-.973.237-2.323-.037-3-.274-.677-.481.119-.461 1.769m80.091 3c.008 2.75.202 3.756.432 2.236.229-1.52.223-3.77-.014-5-.237-1.23-.425.014-.418 2.764m50.359-1.289l-2.855 2.751 2.605 3.096c1.433 1.702 2.605 2.611 2.605 2.019 0-.592-.912-1.989-2.026-3.103l-2.026-2.026 2.776-2.389c1.527-1.314 2.551-2.549 2.276-2.744-.275-.195-1.785.883-3.355 2.396M92.638 138.5c.317.825.753 1.5.969 1.5.216 0 .393-.675.393-1.5s-.436-1.5-.969-1.5c-.532 0-.709.675-.393 1.5m-46.042.891c.272.709-.2 1.866-1.05 2.571-.871.723-1.481 2.649-1.396 4.41l.15 3.128.43-3c.237-1.65 1.319-3.955 2.404-5.122 1.669-1.794 1.742-2.212.471-2.699-.961-.369-1.325-.112-1.009.712m35.941.647c-2.228 1.423-3.154 1.591-3.734.677-.456-.718-.746.012-.709 1.785.035 1.65.282 2.463.55 1.806.267-.656 1.956-1.679 3.754-2.272 1.798-.594 3.269-1.744 3.269-2.557 0-.812-.038-1.444-.084-1.404-.046.04-1.416.925-3.046 1.965M88 139c-.825.533-1.05.969-.5.969s1.675-.436 2.5-.969c.825-.533 1.05-.969.5-.969s-1.675.436-2.5.969m-50.781 2.67c1.456 3.983.038 6.004-4.859 6.922-2.554.479-3.945.189-5.4-1.128-2.596-2.35-2.56-.064.04 2.536 4.252 4.252 12 1.148 12-4.809 0-1.545-.661-3.682-1.47-4.75-1.334-1.761-1.362-1.647-.311 1.229m-12.581-.17c.317.825.705 1.5.862 1.5.157 0 .545-.675.862-1.5.347-.905.005-1.5-.862-1.5s-1.209.595-.862 1.5m70.594 2.5c0 1.925.206 2.713.457 1.75.252-.963.252-2.537 0-3.5-.251-.963-.457-.175-.457 1.75M216 143.065c0 .424-.301 1.557-.67 2.517-.398 1.039-.271 1.5.314 1.138.542-.335 3.768-.035 7.17.666 3.402.701 6.186.938 6.186.526 0-.411.261-1.427.579-2.257.416-1.084.064-1.38-1.25-1.052-1.006.251-4.192-.166-7.079-.927-2.887-.761-5.25-1.036-5.25-.611M92.195 145.5c.02 1.65.244 2.204.498 1.231.254-.973.237-2.323-.037-3-.274-.677-.481.119-.461 1.769M9 144.378c0 .207.787.995 1.75 1.75 1.586 1.243 1.621 1.208.378-.378C9.821 144.084 9 143.555 9 144.378m100.079 1.205c.048 1.165.285 1.402.604.605.289-.722.253-1.585-.079-1.917-.332-.332-.568.258-.525 1.312m101 3c.048 1.165.285 1.402.604.605.289-.722.253-1.585-.079-1.917-.332-.332-.568.258-.525 1.312m-195.016 2.994c1.89 2.242 3.64 3.915 3.887 3.717.247-.199-1.299-2.033-3.437-4.077l-3.887-3.717 3.437 4.077m62.073-1.327L77 153h7.5c6.506 0 7.49-.232 7.421-1.75-.047-1.045-.282-1.247-.583-.5-.329.816-2.71 1.25-6.852 1.25-5.787 0-6.385-.199-6.78-2.25-.372-1.929-.453-1.858-.57.5m136.937 3.385c-2.114 2.686-2.761 6.822-1.217 7.776.47.291.642-.585.382-1.947-.613-3.204 1.315-5.464 4.662-5.464 6.215 0 9.441 6.247 4.877 9.443-1.678 1.176-1.829 1.557-.613 1.557 2.044 0 5.054-6.225 4.188-8.659-2.096-5.884-8.644-7.327-12.279-2.706m24.494-.709c-.958 1.059-1.53 2.746-1.271 3.75.437 1.687.481 1.68.588-.097.064-1.057.861-2.744 1.771-3.75.91-1.006 1.43-1.829 1.155-1.829-.275 0-1.284.867-2.243 1.926m-198.848.719c-.344.557-3.122 1.612-6.172 2.344-4.238 1.016-5.547 1.765-5.547 3.171 0 1.012.113 1.837.25 1.832.137-.004 3.037-.855 6.442-1.891 3.406-1.035 6.444-1.632 6.75-1.325.755.754.585-.848-.34-3.21-.421-1.076-1.035-1.484-1.383-.921m7.312 2.855c0 .55.436 1.675.969 2.5.533.825.969 1.05.969.5s-.436-1.675-.969-2.5c-.533-.825-.969-1.05-.969-.5m-30.952 5.083c.048 1.165.285 1.402.604.605.289-.722.253-1.585-.079-1.917-.332-.332-.568.258-.525 1.312m223 2c.048 1.165.285 1.402.604.605.289-.722.253-1.585-.079-1.917-.332-.332-.568.258-.525 1.312m-36.268 4.73c-3.503 7.143-7.34 11.478-10.597 11.974l-2.714.413 2.646.15c1.888.107 3.537-.864 5.752-3.387 3.082-3.51 8.579-13.32 7.864-14.034-.205-.205-1.533 1.993-2.951 4.884m-187.732-2.804c-.043 1.106.933 2.632 2.171 3.392 2.153 1.322 2.18 1.3.63-.509-.89-1.041-1.867-2.567-2.171-3.392-.393-1.071-.574-.925-.63.509m15.442-.543c-.328.531.314 2.75 1.427 4.931l2.023 3.966 6.014-2.595c5.532-2.387 7.022-3.928 5.384-5.566-.348-.347-1.573.028-2.723.833-2.802 1.963-3.646 1.846-3.646-.504 0-1.376-.471-1.787-1.567-1.367-1.111.426-1.257.912-.5 1.669 1.588 1.588 1.326 2.228-1.421 3.479-2.233 1.018-2.549.887-3.094-1.282-.333-1.329-.312-2.892.047-3.473s.203-1.057-.347-1.057-1.269.435-1.597.966m178.581.816c-1.172 2.095 10.948 8.426 12.24 6.393 1.054-1.66 1.18-1.549-5.678-5.009-4.877-2.46-5.845-2.664-6.562-1.384m25.648 4.357l-4.75 4.069v6.896c0 3.793-.364 6.896-.809 6.896-.445 0-1.682.697-2.75 1.548-1.714 1.368-1.562 1.365 1.309-.025 3.19-1.545 3.25-1.699 3.242-8.299l-.008-6.724 4.758-4.212c2.617-2.316 4.533-4.213 4.258-4.215-.275-.002-2.637 1.828-5.25 4.066m-151.295-.684c-1.948 1.947-2.455 3.48-2.455 7.427 0 4.181.419 5.303 2.635 7.045 2.974 2.34 9.865 2.777 12.452.791 2.281-1.752 3.913-5.178 3.913-8.218 0-5.916-3.628-9.423-9.795-9.468-3.255-.024-4.891.563-6.75 2.423m26 0c-3.468 3.468-3.468 10.622 0 14.09 3.511 3.512 9.677 3.414 13.302-.211l2.666-2.666-2.213-.988c-1.68-.749-2.653-.589-4.04.666-3.783 3.424-7.531 1.048-6.988-4.43.4-4.042 3.001-5.907 5.801-4.159 4.815 3.007 8.373.006 3.794-3.2-3.474-2.434-9.424-2.001-12.322.898M132 176.5v9.5h6.277c7.191 0 10.723-1.814 10.723-5.507 0-1.316-.787-2.838-1.75-3.381-1.402-.791-1.501-1.239-.5-2.25 1.88-1.898 1.503-5.656-.684-6.827-1.064-.569-4.664-1.035-8-1.035H132v9.5m26.455-7.045c-1.894 1.893-2.455 3.504-2.455 7.045 0 6.103 3.173 9.5 8.873 9.5 5.36 0 6.943-.744 8.664-4.072 2.524-4.881 1.494-10.617-2.45-13.646-.873-.67-3.52-1.233-5.882-1.25-3.255-.024-4.891.563-6.75 2.423M54 171c.589 1.1 1.295 2 1.57 2 .275 0 .019-.9-.57-2s-1.295-2-1.57-2c-.275 0-.019.9.57 2m-31.881 1.167c1.441 1.283 2.868 3.008 3.171 3.833.45 1.223.567 1.19.631-.182.043-.925-1.383-2.65-3.171-3.833l-3.25-2.15 2.619 2.332m64.935.268c-1.662 2.002-.909 7.641 1.196 8.959 2.565 1.606 5.183-.42 5.568-4.31C94.176 173.472 92.624 171 90 171c-.965 0-2.291.646-2.946 1.435m50.134.304c.385 1.997 2.677 2.667 4.69 1.372 1.958-1.26.464-3.111-2.51-3.111-1.85 0-2.426.459-2.18 1.739m24.847.195c-2.522 4.713-.011 9.779 4.309 8.694 2.289-.574 2.656-1.189 2.656-4.447 0-2.08-.54-4.321-1.2-4.981-1.802-1.802-4.598-1.446-5.765.734M206 171.64c0 .352.771 1.203 1.712 1.892 1.518 1.109 1.546 1.463.25 3.11-1.331 1.691-1.311 1.74.218.543 1.436-1.123 1.841-1.014 2.785.75 1.233 2.304 1.228 2.305-4.748 1.15-3.579-.692-4.436-.544-5.211.903-.826 1.543-.152 1.804 6.18 2.393 3.908.363 7.243.523 7.411.356.488-.489-7.021-11.709-7.847-11.724-.412-.007-.75.275-.75.627m-148.147 5.343c1.125 1.916 2.556 3.653 3.182 3.862.625.208.432-.459-.43-1.483a295.309 295.309 0 01-3.182-3.862c-.888-1.1-.694-.433.43 1.483m-14.71-.078c-.945.589-1.021 1.052-.25 1.529 1.794 1.109 1.279 2.531-1.352 3.729-2.067.942-2.289 1.439-1.393 3.114.597 1.115 1.35 1.557 1.709 1.003.354-.545 2.965-2.308 5.803-3.919 4.305-2.443 4.999-3.218 4.188-4.669-.909-1.623-1.151-1.599-3.654.37l-2.681 2.109-.507-2.055c-.352-1.432-.918-1.799-1.863-1.211m-6.552.948c-.29.469.091 1.698.847 2.731 1.268 1.734 1.333 1.668.851-.853-.556-2.906-.857-3.239-1.698-1.878M137 180c0 1.556.667 2 3 2s3-.444 3-2-.667-2-3-2-3 .444-3 2m-86.679 5.167c-2.829 1.396-4.826 6.109-3.552 8.385.828 1.479 1.034 1.369 1.589-.844.748-2.98 6.698-7.008 9.029-6.113 4.792 1.839-2.026 11.146-7.295 9.958-2.478-.558-2.506-.517-.651.932 2.679 2.091 5.806 1.895 8.924-.558 6.519-5.128-.548-15.46-8.044-11.76m138.173 1.022c-.903 2.018-9.242 9.607-15.499 14.105-2.399 1.724-2.366 1.724.875 0 4.744-2.525 16.522-13.619 16.029-15.098-.24-.719-.824-.306-1.405.993m6.691 1.121c-3.494 3.604-3.858 4.886-1.862 6.543 1.055.876 1.241.535.915-1.684-.252-1.72.189-3.278 1.155-4.08 1.329-1.103 2.262-.682 6.229 2.81 3.529 3.106 4.984 3.843 5.968 3.026 1.282-1.064.658-1.766-7.655-8.612-1.326-1.092-2.053-.786-4.75 1.997m-171.17-.58c-.008.676 1.785 2.148 3.985 3.27 2.2 1.122 4 1.818 4 1.546s-1.462-1.244-3.25-2.16c-1.788-.916-3.581-2.165-3.985-2.776-.517-.781-.739-.746-.75.12m43.485 2.136c1.65 1.826 4.8 4.705 7 6.398 4.685 3.606 3.177 1.987-4.5-4.832-3.193-2.836-4.242-3.493-2.5-1.566m40.959.201c-.363.586-.365 1.361-.005 1.721.36.36 1.073-.008 1.585-.817 1.608-2.542 1.116 1.134-.539 4.029-2.013 3.522-1.863 4.002 1.25 3.985 1.833-.011 2.316-.291 1.449-.841-1.03-.653-1.055-1.367-.119-3.421.651-1.427.913-3.299.583-4.159-.685-1.786-3.222-2.086-4.204-.497m10.993 1.266c-1.136 4.528-.198 7.167 2.548 7.167 2.296 0 2.5-.367 2.5-4.5 0-3.884-.303-4.543-2.215-4.815-1.651-.235-2.372.312-2.833 2.148M132 189.091c-1.129.799-1.191 1.187-.25 1.568.688.279 1.25 2.045 1.25 3.924 0 1.88.45 3.417 1 3.417s1-2.25 1-5c0-5.158-.434-5.723-3-3.909m10.427-.326c-1.585 1.085-.545 9.235 1.178 9.235 1.007 0 1.395-1.39 1.395-5 0-4.927-.459-5.682-2.573-4.235m-20.76.902c-1.035 1.034-.786 6.142.333 6.833.604.373 1-.99 1-3.441 0-4.145-.164-4.562-1.333-3.392m99.556 2.89c-1.223.856-2.187 2.318-2.144 3.25.064 1.37.182 1.407.62.193.298-.825 1.5-2.277 2.671-3.228 2.66-2.158 1.844-2.311-1.147-.215m-185.398 3.117c.426 2.093.678 2.345.969.97.217-1.021-.043-2.293-.576-2.826-.626-.626-.766.031-.393 1.856M82 200.43c0 .275.9.981 2 1.57 1.1.589 2 .845 2 .57s-.9-.981-2-1.57c-1.1-.589-2-.845-2-.57M218.158 202c0 1.375.227 1.938.504 1.25.278-.687.278-1.812 0-2.5-.277-.687-.504-.125-.504 1.25m-180.822 1.99c.111 1.69.806 2.555 2.164 2.692 1.439.146 1.527.062.311-.301-.928-.277-1.902-1.489-2.163-2.692-.399-1.835-.449-1.786-.312.301M167 203.499c-1.375.786-4.665 2.165-7.31 3.065-4.411 1.501-4.957 1.504-6.579.036-2.242-2.029-2.742-2.008-3.563.15-.531 1.393-.412 1.498.579.514.99-.983 1.605-.911 2.997.348 1.492 1.351 2.313 1.403 5.563.351 4.389-1.42 11.313-4.776 11.313-5.483 0-.659-.155-.606-3 1.019m-101.762 2.663c-.681.681-1.238 1.684-1.238 2.229 0 .545.638.118 1.418-.948.78-1.067 1.676-1.683 1.99-1.369.314.315-.305 1.512-1.376 2.661-1.653 1.774-1.734 2.267-.538 3.26 1.835 1.523 4.506.959 5.894-1.245 2.205-3.502-3.202-7.536-6.15-4.588m35.762.959c-1.925 1.032-2.813 1.877-1.973 1.877.841.001 2.469-.657 3.619-1.463 1.15-.805 2.375-1.18 2.723-.833.347.347.631.106.631-.535 0-1.485-.699-1.351-5 .954m84.04-.669c-2.657 3.201 1.245 8.118 4.71 5.936 3.462-2.181 2.229-7.388-1.75-7.388-.965 0-2.297.653-2.96 1.452M94 207c.825.533 1.95.969 2.5.969s.325-.436-.5-.969c-.825-.533-1.95-.969-2.5-.969s-.325.436.5.969m94.427.521c2.055 1.555 3.203 1.308 2.114-.454-.362-.587-1.42-1.053-2.35-1.035-1.485.028-1.456.209.236 1.489m27.386-.838c.721.289 1.584.253 1.916-.079.332-.332-.258-.568-1.312-.525-1.165.048-1.402.285-.604.604m-4 1c.721.289 1.584.253 1.916-.079.332-.332-.258-.568-1.312-.525-1.165.048-1.402.285-.604.604m-166 1c.721.289 1.584.253 1.916-.079.332-.332-.258-.568-1.312-.525-1.165.048-1.402.285-.604.604m23.233 1.231c-.774 1.447-.789 2.086-.05 2.086 1.213 0 2.533-2.805 1.709-3.629-.299-.298-1.045.396-1.659 1.543m9.599 3.738c-3.071 6.26-2.85 6.798 3.279 7.977 2.814.542 3.75.257 5.25-1.596 2.958-3.653 2.381-7.724-1.424-10.044-1.787-1.09-3.494-1.983-3.792-1.985-.298-.002-1.789 2.539-3.313 5.648m127.913-4.745c-.309.498.34.671 1.441.383 2.335-.611 2.63-1.29.56-1.29-.793 0-1.693.408-2.001.907M146 210.583c-1.681.933-1.967 1.392-.872 1.402.895.008 2.187-.66 2.872-1.485 1.46-1.76 1.31-1.753-2 .083m39-.56c0 .572.694 1.306 1.543 1.632 2.346.9 2.621-.072.412-1.451-1.238-.773-1.955-.839-1.955-.181m-104.726 4.35l-2.125 4.374 2.655 1.21c2.388 1.087 2.885.943 4.926-1.429 1.248-1.452 2.27-3.264 2.27-4.027 0-1.258-3.619-4.501-5.023-4.501-.318 0-1.535 1.968-2.703 4.373m27.995-2.68c.973.254 2.323.237 3-.037.677-.274-.119-.481-1.769-.461-1.65.02-2.204.244-1.231.498m68.177 2.673l.688 3.866-2.971-2.116c-4.761-3.39-4.856-2.449-.188 1.861 3.818 3.525 4.15 4.169 2.917 5.663-1.201 1.454-1.186 1.614.108 1.168 1.157-.399 1.427-1.864 1.181-6.412-.176-3.243-.793-6.346-1.372-6.896-.732-.696-.842.175-.363 2.866m-125.367-.783c.048 1.165.285 1.402.604.605.289-.722.253-1.585-.079-1.917-.332-.332-.568.258-.525 1.312m64.171-.894c.963.252 2.537.252 3.5 0 .963-.251.175-.457-1.75-.457s-2.713.206-1.75.457m24.019.004c.973.254 2.323.237 3-.037.677-.274-.119-.481-1.769-.461-1.65.02-2.204.244-1.231.498m-11.519 1.013c1.238.238 3.262.238 4.5 0 1.238-.239.225-.434-2.25-.434s-3.487.195-2.25.434m36.28 1.544c-.016 1.512.321 2.75.751 2.75.429 0 1.29 1.35 1.913 3 .697 1.846 1.839 2.994 2.969 2.985 1.117-.01 1.406-.304.737-.75-1.819-1.214-3.593-5.29-2.988-6.865.311-.811.148-1.216-.362-.901-.51.315-1.391-.224-1.958-1.198-.889-1.528-1.035-1.393-1.062.979m-6.03.809c0 .582.45.781 1 .441s1-.816 1-1.059-.45-.441-1-.441-1 .477-1 1.059M147 219c-2.721 2.721-2.513 6.578.517 9.608 1.835 1.835 3.121 2.337 4.75 1.853 3.231-.959 6.405-5.461 3.85-5.461-.486 0-1.119.9-1.407 2-.345 1.319-1.364 2-2.994 2-3.323 0-4.919-2.177-4.534-6.185.301-3.133.524-3.309 4.078-3.2 3.071.094 3.553-.135 2.628-1.25-1.623-1.955-4.569-1.684-6.888.635m-54.464-.059c-.32.518.617.856 2.082.75 1.465-.105 2.863.372 3.106 1.059.299.845-.683 1.25-3.034 1.25-5.894 0-5.602 3.912.399 5.341 2.306.549 2.712.215 3.715-3.052.811-2.646.822-4.034.038-4.979-1.255-1.512-5.447-1.757-6.306-.369M159 218.48c0 1.251 3.305 8.549 3.694 8.159.703-.703-1.917-8.639-2.852-8.639-.463 0-.842.216-.842.48m42.624 1.059c-.965 2.514-.681 3.163.498 1.136.584-1.004.851-2.036.593-2.293-.257-.258-.749.263-1.091 1.157M53 219.941c0 .518.445 1.216.989 1.552.566.35.734-.051.393-.941-.665-1.732-1.382-2.049-1.382-.611M104.147 224c-.003 1.925.34 4.386.764 5.47.685 1.753 1.078 1.504 3.576-2.27 1.543-2.333 2.559-4.488 2.257-4.79-.302-.301-1.38.867-2.397 2.596l-1.847 3.145-1.173-3.826-1.173-3.825-.007 3.5m-40.694-1.264c1.624.24 3.561 1.185 4.305 2.1 1.181 1.453 1.214 1.379.262-.586-.824-1.701-1.875-2.213-4.305-2.1l-3.215.15 2.953.436m128.797-.047c.963.252 2.537.252 3.5 0 .963-.251.175-.457-1.75-.457s-2.713.206-1.75.457M92 224.57c0 1.042.729 1.462 2.172 1.25 3.201-.472 3.544-2.82.411-2.82-1.68 0-2.583.549-2.583 1.57m23.713-.949c-1.358 1.357-.706 2.618.735 1.422 1.015-.843 1.985-.899 3.25-.189 1.939 1.088 1.172 1.651-3.198 2.348-1.937.308-3.556 4.675-1.82 4.908.451.06 2.305.233 4.12.385l3.3.276-.3-4.635c-.267-4.124-.58-4.669-2.837-4.932-1.396-.163-2.859.025-3.25.417m12.442.983c-2.36 1.653-2.844 5.307-.955 7.196 1.874 1.874 5.615 1.415 6.82-.838 2.377-4.441-1.933-9.112-5.865-6.358M187 225c-.589 1.1-.845 2-.57 2s.981-.9 1.57-2c.589-1.1.845-2 .57-2s-.981.9-1.57 2m-58.819 3.171c.245 2.556.784 3.329 2.319 3.329 1.556 0 2-.667 2-3 0-2.377-.482-3.068-2.319-3.329-2.077-.294-2.286.019-2 3m-11.931.491c-2.151.868-1.365 2.338 1.25 2.338 1.556 0 2.5-.567 2.5-1.5 0-1.493-1.368-1.799-3.75-.838m67.589 1.792c-.959 2.105-1.917 2.505-6.729 2.811l-5.61.357 5.724.189c5.429.179 5.805.034 7.276-2.811.853-1.65 1.305-3 1.004-3-.301 0-1.05 1.104-1.665 2.454M71.242 231c1.203 2.022 2.326 2.522 5.873 2.617l4.385.116-4-.423c-2.497-.264-4.704-1.248-5.873-2.617l-1.873-2.193 1.488 2.5M86 233.313c0 .172 1.434 1.635 3.186 3.25l3.186 2.937-2.436-3.195c-2.069-2.713-3.936-4.133-3.936-2.992M164.881 238c-2.487 2.75-4.266 5-3.954 5 .312 0 2.636-2.25 5.164-5 2.529-2.75 4.308-5 3.954-5-.353 0-2.677 2.25-5.164 5m-58.381 1.16c1.1.605 3.695 2.715 5.767 4.69l3.767 3.589 4.565-2.469c2.51-1.359 4.818-2.87 5.128-3.359.31-.489-1.714.391-4.497 1.955l-5.061 2.845-4.562-4.206c-2.509-2.313-5.135-4.191-5.835-4.175-.699.017-.372.526.728 1.13m40.372 1.59c-1.193 1.522-1.177 1.601.128.608.825-.629 2.4-1.364 3.5-1.634 1.9-.467 1.893-.498-.128-.608-1.17-.064-2.745.671-3.5 1.634M92 240.378c0 .207.787.995 1.75 1.75 1.586 1.243 1.621 1.208.378-.378-1.307-1.666-2.128-2.195-2.128-1.372m37.234 1.169c.331.524 2.656 2.064 5.165 3.422 3.701 2.002 4.803 2.227 5.832 1.191 1.027-1.035.948-1.156-.414-.638-.999.38-3.615-.491-6.435-2.144-2.613-1.531-4.48-2.355-4.148-1.831m13.638 2.203c-1.243 1.586-1.208 1.621.378.378 1.666-1.307 2.195-2.128 1.372-2.128-.207 0-.995.787-1.75 1.75" fill="#1976D2" fill-rule="evenodd"/></svg>