<svg xmlns="http://www.w3.org/2000/svg" xmlns:xlink="http://www.w3.org/1999/xlink" width="1920" height="1080"><defs><clipPath id="A"><path d="M0 0h1920v1080H0z"/></clipPath><path id="B" d="M928.84 962.292v6.732h-5.68v-6.732z"/><path id="C" d="M735.983 995.756v5.2h6.3v-5.2z"/><path id="D" d="M409.235 864.18v5.333h86.4v-5.333z"/><path id="E" d="M168.9 998.816v6.017h7.11v-6.017z"/><path id="F" d="M24.524 1016.673v2.863h48.923v-2.863z"/></defs><g clip-path="url(#A)"><path fill="#fff" d="M0 0h1920v1080H0z"/><path fill="#81d2e5" d="M0 0h1920v1080H0z"/><circle cx="983" cy="661" r="363" fill="#61c1de" opacity=".53"/><path d="M106.93 1080V740.547h26.4v45.84h15.84V713.29h7.92v-13.627h23.762V1080z" fill="#36b4dd"/><path d="M168.174 668.072v51.554h3.91v-51.554z" fill="#60bfd3"/><path d="M157.374 700.07v18.844h7.466V700.07z" fill="#1494c3"/><path d="M149.13 718.915v23.11h9.6v-23.11z" fill="#0090bd"/><path fill="#0697c6" d="M110 744h7v48h-7z"/><path d="M259.962,708.8v305.658h59.913V742.313H295.5V708.8Z" fill="#13a4d3"/><path d="M281.287,708.8v30.464h15.232V708.8Z" fill="#39b4de"/><path d="M296.52 739.267v47.727h16.248v-47.727z" fill="#34afd8"/><path d="M376.742 727.08v221.374H478.29V727.08H459V691.54h-8.124v-37.572h-42.65v37.573h-18.283v35.542z" fill="#16a7d3"/><path d="M427.515 657.013v200.05h23.356v-200.05z" fill="#40b5e0"/><path d="M393.572,693.408v29.443h10.816V693.408Z" fill="#0096c5"/><path d="M377.95 726.456v13.82h13.22v-13.82z" fill="#0092c5"/><path d="M502.93 605.08V891.7h84.723V605.08l-15.623-18.026V564.82h-12.017v-10.215h-6.01v-12.618h-7.81v-30.044h-4.807v30.044h-8.412v12.618h-6.01v10.215h-7.81v22.232z" fill="#11a6d0"/><path d="M504.133,606.282h13.82V761.908h-13.82Z" fill="#0195c3"/><path d="M528.168 567.826v19.83h-5.408v-19.83z" fill="#0990bd"/><path d="M681.992 687.4l-.6 296.23h100.345l-1.8-296.23h-28.244v-33.65h-24.035v-57.684h-6.01v57.684h-24.636v33.65z" fill="#38b3dd"/><path d="M695.812,687.4V795.557H685.6V687.4Z" fill="#008bbe"/><path d="M706.627,657.356V686.8h-9.013V657.356Z" fill="#0398c3"/><path d="M752.294,688V806.973h25.237V688Z" fill="#33b2d5"/><path d="M733.066,655.553V685.6h17.425V655.553Z" fill="#43b4d4"/><path d="M826.2 623.106V928.35h81.72V623.106H892.9V549.8l-57.684 51.675v21.63z" fill="#3bb2dc"/><path d="M888.692,624.308h16.824v171.85H888.692Z" fill="#0597c8"/><path d="M856.25 823.8h36.608v-274l-36.608 49.272z" fill="#13a4d0"/><path d="M925.4 759.07v187.457h55.445V759.07z" fill="#12a3d0"/><path d="M960 499.005v467.323h121.178V499.005l-18.094-26.84h-8.177v-32h-12.09v-15.288H1035v-14.933h-13.87v-41.6h-2.844v41.6h-9.244v14.933h-8.533v15.29h-11.734v30.22l-23.11 28.617z" fill="#0ea5d0"/><path d="M1000.152 441.233v30.22h-12.444v-30.22z" fill="#1593bc"/><path d="M965.6 499.927h19.228V789.55H965.6z" fill="#0397c7"/><path d="M1057.538,498.125v203.7h20.43v-203.7Z" fill="#36b1da"/><path d="M1022.587 946.738v53.51h37.573V951.5z" fill="#0ea5d0"/><g fill="#2eb1dd"><path d="M1019 511h8v9h-8zm0 15h8v9h-8zm0 15h8v9h-8zm1 15h8v9h-8zm11-45h8v9h-8zm0 15h8v9h-8zm0 15h8v9h-8zm1 15h8v9h-8zm-25-45h8v9h-8zm0 15h8v9h-8zm0 15h8v9h-8zm1 16h8v9h-8z"/></g><path d="M1106.87 898.307v-288.24h10.936v-41.4h16.4V515.55h49.212v53.117h8.593v41.4h14.842l-3.906 288.24z" fill="#13a4d1"/><path d="M1156.082 517.112V836.6h21.09V517.112z" fill="#39b0da"/><path d="M1105.308 631.94h13.28v-21.1h-13.28z" fill="#0396c2"/><path d="M1119.37 568.667v40.62h11.717v-40.62z" fill="#0097c8"/><path d="M1184.2 570.23v135.136h18.747V612.41h-11.717v-42.18z" fill="#11a3d2"/><path d="M1180.3 709.272v224.186h104.67V709.272h-28.12v-32.027h-20.31v-49.21h-7.81v49.212h-20.3v32.027z" fill="#13a6d2"/><path d="M1256.85 709.272v107.016h23.434V709.272z" fill="#38b3dd"/><path d="M1208.418 706.93v99.985h-23.434V706.93z" fill="#0096c8"/><path d="M1209.98 680.37v25.777h7.81V680.37z" fill="#0099c6"/><path d="M1263.1,592.1V916.273h94.517V515.55h-57.8V592.1Z" fill="#14a3cf"/><path d="M1331.057 517.893v309.33h21.09v-309.33z" fill="#41b5de"/><path d="M1303.717 595.226v28.12h-38.276v-28.12z" fill="#0193cc"/><g fill="#2eb1dd"><path d="M1318 520h8v9h-8zm0 15h8v9h-8zm0 15h8v9h-8zm0 15h8v9h-8zm12-45h8v9h-8zm0 15h8v9h-8zm0 15h8v9h-8zm0 15h8v9h-8zm-24-45h8v9h-8zm0 15h8v9h-8zm0 15h8v9h-8zm0 15h8v9h-8zm12 17h8v9h-8zm0 15h8v9h-8zm0 15h8v9h-8zm0 15h8v9h-8zm12-45h8v9h-8zm0 15h8v9h-8zm0 15h8v9h-8zm0 15h8v9h-8zm-24-45h8v9h-8zm0 15h8v9h-8zm0 15h8v9h-8zm0 15h8v9h-8zm-27 0h8v9h-8zm0 15h8v9h-8zm0 15h8v9h-8zm0 15h8v9h-8zm12-45h8v9h-8zm0 15h8v9h-8zm0 15h8v9h-8zm0 15h8v9h-8zm-24-45h8v9h-8zm0 15h8v9h-8zm0 15h8v9h-8zm0 15h8v9h-8zm12 17h8v9h-8zm0 15h8v9h-8zm0 15h8v9h-8zm0 15h8v9h-8zm12-45h8v9h-8zm0 15h8v9h-8zm0 15h8v9h-8zm0 15h8v9h-8zm-24-45h8v9h-8zm0 15h8v9h-8zm0 15h8v9h-8zm0 15h8v9h-8zm50-92h8v9h-8zm0 15h8v9h-8zm0 15h8v9h-8zm0 15h8v9h-8zm12-45h8v9h-8zm0 15h8v9h-8zm0 15h8v9h-8zm0 15h8v9h-8zm-24-45h8v9h-8zm0 15h8v9h-8zm0 15h8v9h-8zm0 15h8v9h-8zm12 17h8v9h-8zm0 15h8v9h-8zm0 15h8v9h-8zm0 15h8v9h-8zm12-45h8v9h-8zm0 15h8v9h-8zm0 15h8v9h-8zm0 15h8v9h-8zm-24-45h8v9h-8zm0 15h8v9h-8zm0 15h8v9h-8zm0 15h8v9h-8z"/></g><path d="M1361.674 787.608v-61.474h11.555v-49.457h6.47v26.808h19.413v-26.808h8.32v49.457h9.244v61.474z" fill="#10a1cd"/><path d="M1304.822 830.13v78.576h127.108V830.13z" fill="#0491c7"/><path d="M1426.383 697.94v219.088h55.465l1.85-286.11h-47.146v67.02z" fill="#1ca9d6"/><path d="M1461.974,632.3v119.25h19.413V632.3Z" fill="#3ab1db"/><path d="M1426.383,697.476v13.866H1438.4V697.476Z" fill="#0593c3"/><path d="M1472.142 775.6v70.256h52.692V775.6z" fill="#1ca7d2"/><path d="M1495.715 778.363v64.7h28.195v-64.7z" fill="#29b3da"/><path d="M1509.58 715.965V911.48h107.7v-91.518h-29.12v-61.936h-24.5v-42.06z" fill="#12a5d1"/><path d="M1521.136,715.965v57.776h-9.244V715.965Z" fill="#0693be"/><path d="M1542.86,715.5v40.675h21.262V715.5Z" fill="#38b1dc"/><path d="M1563.66,758.488v61.474h22.648V758.488Z" fill="#35b2de"/><path d="M1586.308 788.07v44.372h91.98V662.81h-17.564v-41.6h-5.084v41.6h-17.1v23.11h-13.866V788.07z" fill="#189fcc"/><path d="M1639.925,687.77v26.808H1625.6V687.77Z" fill="#0ba2cf"/><path d="M1675.516 786.684v170.093l109.082 2.31-.462-172.4h-28.657v-47.15h-45.3v47.146z" fill="#16a7d3"/><path d="M1676.9,805.634h34.666V787.608H1676.9Z" fill="#0294c3"/><path d="M1738.84 802.86h31.43v-15.253h-14.328v-48.532h-17.1z" fill="#35b0da"/><path d="M1795.69 728.907V944.3h108.157V728.907h-28.657V700.25h-21.724V647.1h-3.7v53.15h-21.262v28.657z" fill="#17a6d2"/><path d="M1877.04,731.68V839.838h21.724V731.68Z" fill="#32b3dd"/><path d="M1828.97,730.294v99.375h-25.884V730.294Z" fill="#0095c7"/><path d="M1837.3 702.56v24.5h-9.244v-24.5z" fill="#0095c0"/><path d="M1861.325,703.948v25.422h13.866V703.948Z" fill="#38b5e1"/><path d="M1898.764,800.55v45.3h13.866V947.533h15.715V800.55Z" fill="#35b0dc"/><path d="M1873.8 842.15v137.277h40.675V842.15z" fill="#007db2"/><path d="M1892.293,843.073V952.617H1877.5V843.073Z" fill="#0274a8"/><path d="M1586.308,924.085v-57.8h29.865V822.537h59.366V950.644h43.744V906.9h95.3v128.106l-228.273,3.906Z" fill="#017db1"/><path d="M1878.634 1088.124V974.86h9.374v-57.023l34.37 25v145.29z" fill="#06567b"/><path d="M1884.1 936.583v144.53h-197.49v-59.625H1737v-84.9h30.968V885.6h23.11v50.986h30.968V885.6h27.733v50.986z" fill="#0b5b80"/><path d="M1766.572 935.978v83.66h-29.12v-83.66z" fill="#095378"/><path d="M1469.4,908.707h-57.882v85.446H1469.4Z" fill="#027aac"/><path d="M1452.134,910.787v38.685h14.217V910.787Z" fill="#0283bc"/><path d="M1688 1080v-94.565h-13.4V948h-64.247v-37.9h-40.212v-76.27H1462.9V948h-32.355v132z" fill="#095b81"/><path d="M1499.876 838.452v109.08h-35.128v-109.08z" fill="#075579"/><path d="M1463.36 948v36.977h-30.506V948z" fill="#06557e"/><path d="M1440.456 1080v-94.986h-20.817V777.857h-69.053V860.1h-62.96V1080z" fill="#0a5980"/><path d="M1381.05 787.608v76.565h-25.387v-76.565z" fill="#08537b"/><g fill="#16658c"><path d="M1300.592 884.957v4.267h75.732v-4.267zm0 40v4.267h75.732v-4.267zm0-13v4.267h75.732v-4.267zm0-41v4.267h75.732v-4.267zm0 28v4.267h75.732v-4.267z"/></g><path d="M1304.822 913.15H1284.2v-28.12h-30.464v28.12h-14.842v-28.12h-32.027v28.12h-24.215v-40.62h-70.3v-45.306h-32.808V788.95h-36.714v214.032h262z" fill="#007db0"/><path d="M1063.91 793.636v196.846h-19.528V793.636z" fill="#0075aa"/><path d="M1113.12 877.217v38.276h33.59v-38.276z" fill="#0175a6"/><path d="M1081.178 830.13v15.84h18.664v-15.84z" fill="#0075aa"/><path d="M1012.354 950.645v-32.808h-62.49V804.572H927.2v-28.9h-60.147v28.9h-25v113.265l-24.215-3.125v92.174h194.5z" fill="#007baf"/><path d="M888.935 780.746v137.09H844.4v-111.7h23.434v-25.39z" fill="#0076a6"/><path d="M931.9,806.134V917.056h18.747V806.134Z" fill="#0086ba"/><path d="M1301.375 933.458h-138.26v28.9h-64.053v30.464h-64.053v-34.37h-17.185v-25H981.9v25h-30.464v-25H913.15v25h-24.215v120.3l412.44.78z" fill="#075b7f"/><path d="M1129.525,966.328v28.06H1101.4v-28.06Z" fill="#065574"/><path d="M1063.128,996.732v80.457h-25.777V996.732Z" fill="#065576"/><path d="M998.294 938.146v20.3H982.67v-20.3z" fill="#045479"/><g fill="#0d6185"><path d="M1000.73 965.328v112.348h-4.376V965.328zm-11 0v112.348h-4.376V965.328zm-13 0v112.348h-4.376V965.328z"/></g><g fill="#0d607e"><use xlink:href="#B"/><path d="M919.84 983.292v6.732h-5.68v-6.732zm0 9v6.732h-5.68v-6.732zm9-9v6.732h-5.68v-6.732zm0 9v6.732h-5.68v-6.732zm-9-19v6.732h-5.68v-6.732zm9 0v6.732h-5.68v-6.732zm-9-11v6.732h-5.68v-6.732z"/></g><path d="M900.65 1006.5H878v-21.487h-64.837v21.487H797.54v73.036h103.1z" fill="#085a80"/><path d="M813.383 1008.87v39.658H797.76v-39.658z" fill="#06567b"/><path d="M826.2 933.458V695.6l-62.56 60.932v257.932h62.56z" fill="#007eb1"/><path d="M764 757.547h16.874v189.895H764z" fill="#0175a8"/><path d="M752.48 980.35v-78.576h-62.86v-242.2H656.8V598.1h-71.178v436.67h112.012v21.33h54.847z" fill="#0086bd"/><path d="M641.783,601.164v57.882h15.232v369.635H587.963V601.164Z" fill="#007caf"/><path d="M624.52,601.164V835.74H588.978V601.164Z" fill="#0076a8"/><path d="M691.542 904.792v55.85h37.573v-55.85z" fill="#0175a6"/><path d="M797.54 946.738h-34.37v25.777h-36.714v108.348h71.083z" fill="#095b81"/><path d="M764.07 977.043v102.4H727.8v-102.4z" fill="#085478"/><path d="M778.648,947.888v25.244H763.715V947.888Z" fill="#07577c"/><g fill="#0d658b"><path d="M794.292 953.866v124.44h-3.2v-124.44zm-6 0v124.44h-3.2v-124.44zm-6 0v124.44h-3.2v-124.44z"/></g><g fill="#0c5e83"><use xlink:href="#C"/><path d="M735.983 977.756v5.2h6.3v-5.2zm0 9v5.2h6.3v-5.2zm9 9v5.2h6.3v-5.2zm0-18v5.2h6.3v-5.2zm0 9v5.2h6.3v-5.2zm9 9v5.2h6.3v-5.2zm0-18v5.2h6.3v-5.2zm0 9v5.2h6.3v-5.2z"/></g><path d="M560.2 877.278V726.6h-14.328v-25.425h-67.02V726.6h-14.8v139.123h38.364v46.22z" fill="#027eb2"/><path d="M505.66,707.184V818.577H469.607V729.37H484.4V707.184Z" fill="#07a"/><path d="M740.926 1045.523h-39.288v-19.875h-18.49v-25.422h-17.1v-22.648H648.02v22.648h-15.715v-22.648h-16.178v22.648H604.11v25.422H582.85v54.88l158.076.42z" fill="#085a80"/><path d="M681.39 1032.272v45.1h20.432V1029.3H681.39z" fill="#055674"/><path d="M631.808,1002.645v21.688h14.933v-21.688Z" fill="#065679"/><path d="M606.21 1001.933v22.4h9.6v-22.4z" fill="#0a5479"/><path d="M407.394 858.65H391.17v77.513h-4.206V769.722h-7.81v-21.03h-10.215v-21.63h-8.412v-24.636l-10.215-2.4V657.96h-3v42.06h-13.82v27.04h-6.6v21.632h-6.6v23.434h-9.013v171.85h96.14z" fill="#0076a8"/><path d="M368.938,773.928h16.224V933.16H368.938Z" fill="#0388c0"/><path d="M349.11 730.064h19.228v205.5H349.11z" fill="#017db3"/><path d="M301.64 939.17v-27.04h-13.22v-135.8h-19.228v-31.844l-66.1-28.842v60.688h-16.82v224.127h115.37z" fill="#017db1"/><path d="M209.706 779.716V932.56h-19.228V779.716z" fill="#0075a5"/><path d="M210.907 726.46v45.667H204.9v-49.873z" fill="#0272a4"/><path d="M269.793,779.716V928.954h16.224l-2.4-149.238Z" fill="#0187bc"/><path d="M197.688 912.13h-21.03v-24.636h-5.407v-12.618h-4.807v-19.83L151.42 838.22l-13.22 16.825v19.83h-6.6v12.618h-7.21v24.636h-9.614v85.324h82.92z" fill="#007caf"/><path d="M153.824 844.83v147.816H124.38v-75.1h5.408V892.9l12.618-15.623v-20.43z" fill="#0077a6"/><path d="M117.17 817.792H98.544v-34.85h-19.83V756.5H63.092v26.44h-19.83V756.5H27.04v26.44H10.816v34.85H-3v149.02h120.17z" fill="#007cb0"/><path d="M77.513 787.147V957.2h39.658V819.6h-19.83v-32.453z" fill="#0284be"/><path d="M28.24 788.35v30.645H14.42V788.35z" fill="#0075a7"/><path d="M587.654 837.315l-79.577 66.132v-49.42h-22.754v-41.244l-29.866-33.066h-4.978l-27.022 33.066v41.244h-25.243v225.508h188.42z" fill="#0b5b80"/><path d="M454.623 785.044v292.927H403.85v-219.5h21.87v-42.963z" fill="#065576"/><g fill="#135e85"><use xlink:href="#D"/><path d="M409.235 934.18v5.333h86.4v-5.333zm0 70v5.333h86.4v-5.333zm0-28v5.333h86.4v-5.333zm0 14v5.333h86.4v-5.333zm0-42v5.333h86.4v-5.333zm0 14v5.333h86.4v-5.333zm0-42v5.333h86.4v-5.333zm0-14v5.333h86.4v-5.333zm0-28v5.333h86.4v-5.333zm0 14v5.333h86.4v-5.333z"/></g><path d="M214.813,992.827H150.76V1081.1h64.053Z" fill="#085476"/><g fill="#0f5e7f"><use xlink:href="#E"/><path d="M158.9 998.816v6.017h7.1v-6.017zm35 0v6.017h7.1v-6.017zm-10 0v6.017h7.1v-6.017zm-15 18v6.017h7.1v-6.017zm-10 0v6.017h7.1v-6.017zm35 0v6.017h7.1v-6.017zm-10 0v6.017h7.1v-6.017zm-15-9v6.017h7.1v-6.017zm-10 0v6.017h7.1v-6.017zm35 0v6.017h7.1v-6.017zm-10 0v6.017h7.1v-6.017z"/></g><path d="M412.44 936.585H274.96v25h-65.616V1081.1h203.1z" fill="#075b80"/><path d="M239.8 966.81v26.8h-24.216v-26.8z" fill="#065478"/><path d="M275.742 938.147v27.34h40.62v-27.34z" fill="#045777"/><path d="M150.76 1080V958.557h-21.7v-25.244H92.8v25.244H61.5v-25.244H24.533v25.244H-.356V1080z" fill="#06547a"/><path d="M40.177 937.58v20.977H28.444V937.58z" fill="#065574"/><path d="M96 938.646V957.5h10.31v-18.844z" fill="#055576"/><g fill="#106288"><use xlink:href="#F"/><path d="M24.524 1010.673v2.863h48.923v-2.863zm0-9v2.863h48.923v-2.863zm0-6v2.863h48.923v-2.863zm0-6v2.863h48.923v-2.863zm73 27v2.863h48.923v-2.863zm0-6v2.863h48.923v-2.863zm0-9v2.863h48.923v-2.863zm0-6v2.863h48.923v-2.863zm0-6v2.863h48.923v-2.863z"/></g></g></svg>